<svg width="40" height="38" viewBox="0 0 40 38" fill="none" xmlns="http://www.w3.org/2000/svg">
<path d="M36.5211 9.43473H31.0081L27.8254 5.95644H15.6516V11.1738H10.4342V16.3912H5.2168V33.7825C5.2168 35.6955 6.78201 37.2608 8.69508 37.2608H36.5211C38.4342 37.2608 39.9994 35.6955 39.9994 33.7825V12.9129C39.9994 10.9999 38.4342 9.43473 36.5211 9.43473ZM22.6081 32.0434C17.8081 32.0434 13.9124 28.1477 13.9124 23.3477C13.9124 18.5477 17.8081 14.6521 22.6081 14.6521C27.4081 14.6521 31.3037 18.5478 31.3037 23.3478C31.3037 28.1478 27.4081 32.0434 22.6081 32.0434Z" fill="#FDFDFD"/>
<path d="M5.21739 14.6522H8.69567V9.43477H13.9131V5.95649H8.69567V0.739105H5.21739V5.95649H0V9.43477H5.21739V14.6522Z" fill="#FDFDFD"/>
<path d="M22.6082 17.7826C19.5299 17.7826 17.043 20.2696 17.043 23.3478C17.043 26.4261 19.5299 28.9131 22.6082 28.9131C25.6864 28.9131 28.1734 26.4261 28.1734 23.3478C28.1734 20.2696 25.6864 17.7826 22.6082 17.7826Z" fill="#FDFDFD"/>
</svg>
