<svg width="64" height="65" viewBox="0 0 64 65" fill="none" xmlns="http://www.w3.org/2000/svg">
<path fill-rule="evenodd" clip-rule="evenodd" d="M29.9999 0.363726C28.3473 0.933146 27.0836 2.05493 26.3079 3.64146C25.07 6.17313 25.5522 9.05759 27.5465 11.0521C28.2411 11.7467 28.8419 12.1162 30.2499 12.7149C30.5335 12.8354 30.5092 12.8486 29.9887 12.8562C28.0639 12.8847 25.3073 14.1802 23.7932 15.768C21.9413 17.7102 21.1247 19.9698 21.1247 23.152C21.1247 25.0498 21.2574 25.4806 21.9817 25.9323L22.4372 26.2164H32.0846C41.6334 26.2164 41.7355 26.2138 42.0772 25.9579C42.8941 25.3462 42.9388 25.1926 42.9276 23.0408C42.9161 20.8176 42.7465 19.9251 42.0423 18.3819C40.6684 15.3713 37.6167 13.1769 34.4282 12.9066L33.4693 12.8254L34.2118 12.5557C37.0175 11.5369 38.7875 8.58621 38.3777 5.61048C38.0338 3.11253 36.0956 0.890269 33.7041 0.251522C32.6876 -0.0198989 30.9615 0.0323799 29.9999 0.363726ZM15.312 13.295C15.1057 13.3884 14.5651 13.8516 14.1106 14.3244C10.7388 17.8317 8.24189 22.3173 6.98447 27.1264C6.50496 28.9601 6.45933 29.8813 6.82322 30.375C7.45624 31.2335 8.34127 31.4998 9.20167 31.0903C9.85044 30.7815 10.0768 30.3508 10.4835 28.6512C11.5496 24.1951 13.3869 20.744 16.6183 17.1274C17.2965 16.3684 17.7844 15.7042 17.8567 15.4416C18.2617 13.9707 16.7101 12.6622 15.312 13.295ZM47.1527 13.324C46.2838 13.7535 45.8849 14.9156 46.3171 15.7587C46.4377 15.9943 46.9678 16.645 47.495 17.2047C50.4504 20.3427 52.422 24.0098 53.5143 28.4007C53.8998 29.95 54.0632 30.4052 54.3366 30.6914C55.2101 31.6058 56.7428 31.3973 57.3158 30.2859C57.6008 29.7331 57.5395 28.9489 57.0667 27.0985C55.9061 22.5573 53.7233 18.5109 50.4531 14.8389C48.973 13.177 48.1834 12.8145 47.1527 13.324ZM10.0604 37.9495C5.67081 38.489 3.18873 43.3915 5.27967 47.3918C6.00857 48.7863 7.16198 49.7416 9.12429 50.5759C9.4078 50.6964 9.38355 50.7096 8.86303 50.7172C8.07963 50.7289 6.47921 51.1544 5.51255 51.608C2.66384 52.9449 0.632775 55.6407 0.132134 58.7493C0.0600071 59.1975 0.000505347 60.2617 5.33188e-06 61.1142C-0.0011197 62.8637 0.175386 63.3877 0.917034 63.8379C1.2963 64.0681 1.68418 64.0774 10.959 64.0774C20.5078 64.0774 20.6099 64.0748 20.9515 63.8189C21.7621 63.212 21.8123 63.0452 21.8111 60.9648C21.8097 58.6556 21.5917 57.5787 20.8093 56.0148C19.8254 54.0479 18.3312 52.5564 16.437 51.65C15.3824 51.1452 13.8177 50.728 12.9482 50.7196L12.3119 50.7135L13.1002 50.4093C17.5737 48.683 18.7695 43.0123 15.3597 39.6937C13.9506 38.322 12.0688 37.7027 10.0604 37.9495ZM52.2115 37.9439C48.6698 38.3742 46.0711 42.0032 46.7901 45.5148C47.2696 47.8568 48.758 49.6022 51.0006 50.4521L51.6881 50.7127L51.0518 50.7192C50.1817 50.7281 48.617 51.1456 47.563 51.65C45.6688 52.5564 44.1746 54.0479 43.1907 56.0148C42.4083 57.5787 42.1903 58.6556 42.1889 60.9648C42.1877 63.0452 42.2379 63.212 43.0485 63.8189C43.3901 64.0748 43.4922 64.0774 53.041 64.0774C62.3158 64.0774 62.7037 64.0681 63.083 63.8379C63.8246 63.3877 64.0011 62.8637 64 61.1142C63.9995 60.2617 63.94 59.1975 63.8679 58.7493C63.3672 55.6407 61.3362 52.9449 58.4874 51.608C57.5208 51.1544 55.9204 50.7289 55.137 50.7172C54.6165 50.7096 54.5922 50.6964 54.8757 50.5759C56.838 49.7416 57.9914 48.7863 58.7203 47.3918C61.1648 42.7153 57.44 37.3087 52.2115 37.9439ZM38.7091 45.9111C36.2524 46.6524 34.2124 46.893 31.1385 46.8041C28.722 46.7342 27.6294 46.5817 25.4907 46.0159C23.8585 45.5842 23.2689 45.6333 22.6515 46.2526C22.2769 46.6282 22.2004 46.8017 22.1521 47.387C22.0789 48.2717 22.4266 48.8971 23.176 49.2287C24.1743 49.6705 26.5142 50.201 28.6874 50.4779C30.0349 50.6497 33.7994 50.6448 35.2567 50.4694C37.9021 50.1509 40.9963 49.3273 41.4587 48.8183C42.3178 47.8729 42.1479 46.4794 41.0952 45.8358C40.5728 45.5162 39.953 45.5359 38.7091 45.9111Z" fill="url(#paint0_linear_27_961)"/>
<defs>
<linearGradient id="paint0_linear_27_961" x1="20.3333" y1="0.0773928" x2="52.5947" y2="63.2632" gradientUnits="userSpaceOnUse">
<stop offset="0.260417" stop-color="#19AEA5"/>
<stop offset="1" stop-color="#18D099"/>
</linearGradient>
</defs>
</svg>
