<svg width="64" height="65" viewBox="0 0 64 65" fill="none" xmlns="http://www.w3.org/2000/svg">
<path fill-rule="evenodd" clip-rule="evenodd" d="M4.41967 0.240412C3.36405 0.496931 2.58853 0.948684 1.72686 1.80892C0.844298 2.69003 0.358879 3.55664 0.125173 4.66839C-0.424894 7.28398 0.873933 9.87756 3.31416 11.0366C4.15233 11.4348 4.43618 11.5048 5.39664 11.5507C6.77712 11.6168 7.82698 11.3581 8.83621 10.7033C10.6787 9.50773 11.5662 7.75837 11.468 5.51537C11.4242 4.51443 11.3607 4.25153 10.9581 3.40343C9.77104 0.903283 7.06959 -0.403574 4.41967 0.240412ZM58.093 1.85607C57.1627 2.41938 56.8725 3.39831 57.3622 4.32032C57.8737 5.28286 58.9682 5.58766 59.9311 5.03547C61.1912 4.31282 61.1672 2.72243 59.8829 1.84819C59.3504 1.48573 58.7 1.48861 58.093 1.85607ZM41.3693 4.94392C38.5236 5.64444 34.2134 8.00276 29.8086 11.2697L28.9333 11.9188L26.8076 11.9835C24.3565 12.0582 22.666 12.3472 20.7212 13.0243C15.7923 14.7403 11.9028 18.1411 9.48493 22.8487C8.06807 25.6075 7.23828 29.3657 7.39171 32.3306L7.44647 33.3904L6.61131 34.5194C3.79408 38.3279 1.53616 42.2915 0.695747 44.9036C-0.646721 49.0768 0.435156 51.8432 3.60989 52.3546C5.98497 52.7372 10.2927 51.1065 14.7158 48.1509L15.5035 47.6245L14.5282 46.8071C13.9919 46.3575 13.359 45.7875 13.1221 45.5404C12.885 45.2933 12.656 45.0912 12.6131 45.0912C12.5703 45.0912 11.9202 45.4619 11.1684 45.915C8.14897 47.7349 5.53994 48.7272 4.08093 48.6106C3.90924 48.5969 3.8621 48.4776 3.8621 48.0566C3.8621 46.4272 5.25984 43.2954 7.58402 39.7178L8.51535 38.284L8.79532 38.9674C9.25485 40.0887 10.0489 41.5971 10.658 42.5056C11.3445 43.5297 12.4959 44.9661 12.6302 44.9661C12.7521 44.9661 15.3572 43.1668 16.6791 42.1699C23.9231 36.7057 32.1896 28.431 37.5959 21.232C39.0271 19.3264 40.3748 17.3776 40.3748 17.2139C40.3748 17.0258 38.9695 15.8833 37.8114 15.1299C36.7371 14.431 35.4235 13.7466 34.4665 13.3873C34.1398 13.2647 33.8726 13.1218 33.8726 13.0698C33.8726 12.9618 36.1045 11.4976 37.4935 10.6945C39.8189 9.34989 42.3595 8.40023 43.4473 8.46915L44.0636 8.50817L44.0405 9.21244C43.9971 10.5288 42.9025 13.155 41.2425 15.9256L40.4702 17.2147L41.3952 18.1768C41.9039 18.7061 42.4897 19.356 42.697 19.6209L43.074 20.1028L44.0026 18.6203C46.0217 15.3969 47.4342 12.1773 47.7652 10.0443C48.1413 7.61992 47.187 5.65532 45.288 4.94467C44.4169 4.61861 42.692 4.61836 41.3693 4.94392ZM41.901 21.7068C36.212 29.8906 25.552 40.5778 17.3409 46.3295C16.3983 46.9897 15.6246 47.567 15.6216 47.6123C15.6187 47.6576 16.0241 47.9574 16.5228 48.2786C18.5212 49.5658 21.1372 50.5959 23.5565 51.0482C25.4196 51.3967 29.2153 51.37 30.934 50.9963C32.7027 50.6119 33.9724 50.1783 35.5868 49.4072C41.1505 46.7503 45.0089 41.8343 46.4097 35.6182C46.6484 34.559 46.6844 34.034 46.682 31.6461C46.679 28.6043 46.5299 27.5995 45.7381 25.2878C45.1185 23.4792 43.3606 20.1851 43.0274 20.2085C42.9784 20.212 42.4714 20.8861 41.901 21.7068ZM54.4099 23.0782C53.142 23.8514 53.2328 25.6845 54.5712 26.3325C55.4572 26.7615 56.2782 26.5374 56.9073 25.6947C57.4802 24.9274 57.1881 23.6168 56.3255 23.0836C55.7899 22.7525 54.9478 22.7501 54.4099 23.0782ZM53.2736 45.2207C49.4604 45.7398 46.2739 48.6159 45.3108 52.4078C44.9978 53.6402 45.0174 55.73 45.3539 56.9898C46.0678 59.6619 47.9786 61.9885 50.4153 63.1525C51.6264 63.7308 52.5836 63.9729 54.0046 64.0597C58.7011 64.3464 62.8484 61.1264 63.81 56.4465C64.3569 53.7848 63.7142 51.0773 61.9964 48.806C60.0536 46.2374 56.5086 44.7804 53.2736 45.2207ZM12.7389 55.5032C12.1 55.9381 11.8231 56.3909 11.8239 56.9993C11.8256 58.4768 13.2099 59.3606 14.4879 58.7003C15.1558 58.3553 15.5232 57.7771 15.5135 57.086C15.4938 55.6504 13.8772 54.7283 12.7389 55.5032ZM33.4999 59.068C32.2806 59.6807 32.1497 61.4432 33.2645 62.2384C33.8213 62.6357 34.822 62.6561 35.3249 62.2805C35.9547 61.8104 36.1866 61.3832 36.1766 60.7124C36.1561 59.3256 34.7302 58.4496 33.4999 59.068Z" fill="url(#paint0_linear_27_968)"/>
<defs>
<linearGradient id="paint0_linear_27_968" x1="20.3333" y1="0.0773928" x2="52.5947" y2="63.2632" gradientUnits="userSpaceOnUse">
<stop offset="0.260417" stop-color="#5DED9C"/>
<stop offset="1" stop-color="#0EBD91"/>
</linearGradient>
</defs>
</svg>
