<?xml version="1.0" encoding="UTF-8" standalone="no"?>
<!DOCTYPE svg PUBLIC "-//W3C//DTD SVG 1.1//EN" "http://www.w3.org/Graphics/SVG/1.1/DTD/svg11.dtd">
<svg width="100%" height="100%" viewBox="0 0 18 20" version="1.1" xmlns="http://www.w3.org/2000/svg" xmlns:xlink="http://www.w3.org/1999/xlink" xml:space="preserve" xmlns:serif="http://www.serif.com/" style="fill-rule:evenodd;clip-rule:evenodd;stroke-linejoin:round;stroke-miterlimit:2;">
    <g transform="matrix(1,0,0,1,-0.833984,0)">
        <path d="M16.284,0C17.414,0 18.334,0.92 18.334,2.06L18.334,20L16.184,18.1L14.974,16.98L13.694,15.79L14.224,17.64L2.884,17.64C1.754,17.64 0.834,16.72 0.834,15.58L0.834,2.06C0.834,0.92 1.754,0 2.884,0L16.284,0ZM12.424,13.06C14.634,12.99 15.484,11.54 15.484,11.54C15.484,8.32 14.044,5.71 14.044,5.71C12.604,4.63 11.234,4.66 11.234,4.66L11.094,4.82C12.794,5.34 13.584,6.09 13.584,6.09C12.544,5.52 11.524,5.24 10.574,5.13C9.854,5.05 9.164,5.07 8.554,5.15L8.384,5.17C8.034,5.2 7.184,5.33 6.114,5.8C5.744,5.97 5.524,6.09 5.524,6.09C5.524,6.09 6.354,5.3 8.154,4.78L8.054,4.66C8.054,4.66 6.684,4.63 5.244,5.71C5.244,5.71 3.804,8.32 3.804,11.54C3.804,11.54 4.644,12.99 6.854,13.06C6.854,13.06 7.224,12.61 7.524,12.23C6.254,11.85 5.774,11.05 5.774,11.05L6.054,11.22L6.094,11.25L6.133,11.273L6.145,11.278L6.184,11.3C6.434,11.44 6.684,11.55 6.914,11.64C7.324,11.8 7.814,11.96 8.384,12.07C9.134,12.21 10.014,12.26 10.974,12.08C11.444,12 11.924,11.86 12.424,11.65C12.774,11.52 13.164,11.33 13.574,11.06C13.574,11.06 13.074,11.88 11.764,12.25C12.064,12.63 12.424,13.06 12.424,13.06ZM7.774,8.39C7.204,8.39 6.754,8.89 6.754,9.5C6.754,10.11 7.214,10.61 7.774,10.61C8.344,10.61 8.794,10.11 8.794,9.5C8.804,8.89 8.344,8.39 7.774,8.39ZM11.424,8.39C10.854,8.39 10.404,8.89 10.404,9.5C10.404,10.11 10.864,10.61 11.424,10.61C11.994,10.61 12.444,10.11 12.444,9.5C12.444,8.89 11.994,8.39 11.424,8.39Z" style="fill:url(#_Linear1);"/>
    </g>
    <defs>
        <linearGradient id="_Linear1" x1="0" y1="0" x2="1" y2="0" gradientUnits="userSpaceOnUse" gradientTransform="matrix(10.836,18.57,-18.57,10.836,6.39388,7.48515e-08)"><stop offset="0" style="stop-color:rgb(93,237,156);stop-opacity:1"/><stop offset="0.26" style="stop-color:rgb(93,237,156);stop-opacity:1"/><stop offset="1" style="stop-color:rgb(14,189,145);stop-opacity:1"/></linearGradient>
    </defs>
</svg>
