<?xml version="1.0" encoding="UTF-8" standalone="no"?><!DOCTYPE svg PUBLIC "-//W3C//DTD SVG 1.1//EN" "http://www.w3.org/Graphics/SVG/1.1/DTD/svg11.dtd"><svg width="100%" height="100%" viewBox="0 0 32 33" version="1.1" xmlns="http://www.w3.org/2000/svg" xmlns:xlink="http://www.w3.org/1999/xlink" xml:space="preserve" xmlns:serif="http://www.serif.com/" style="fill-rule:evenodd;clip-rule:evenodd;stroke-linejoin:round;stroke-miterlimit:2;"><path d="M0.45,2.67c-0.6,-0.6 -0.6,-1.599 -0,-2.22c0.621,-0.6 1.599,-0.6 2.22,-0l13.318,13.341l13.341,-13.341c0.6,-0.6 1.599,-0.6 2.197,-0c0.621,0.621 0.621,1.621 0,2.22l-13.318,13.32l13.318,13.341c0.621,0.599 0.621,1.598 0,2.219c-0.6,0.6 -1.598,0.6 -2.197,0l-13.341,-13.341l-13.318,13.341c-0.621,0.6 -1.599,0.6 -2.22,0c-0.6,-0.621 -0.6,-1.621 -0,-2.219l13.319,-13.341l-13.319,-13.32Z" style="fill:#fdfdfd;fill-rule:nonzero;"/></svg>