<svg width="32" height="32" viewBox="0 0 32 32" fill="none" xmlns="http://www.w3.org/2000/svg">
<path d="M0.44999 2.6694C-0.149997 2.06941 -0.149997 1.07083 0.44999 0.449868C1.07096 -0.150119 2.04856 -0.150119 2.66952 0.449868L15.9881 13.7908L29.3291 0.449868C29.9291 -0.150119 30.9276 -0.150119 31.5262 0.449868C32.1472 1.07083 32.1472 2.07081 31.5262 2.6694L18.2076 15.9894L31.5262 29.3304C32.1472 29.9303 32.1472 30.9289 31.5262 31.5499C30.9262 32.1499 29.9277 32.1499 29.3291 31.5499L15.9881 18.2089L2.66952 31.5499C2.04856 32.1499 1.07096 32.1499 0.44999 31.5499C-0.149997 30.9289 -0.149997 29.9289 0.44999 29.3304L13.7686 15.9894L0.44999 2.6694Z" fill="#151515"/>
</svg>
