<svg width="64" height="65" viewBox="0 0 64 65" fill="none" xmlns="http://www.w3.org/2000/svg">
<path fill-rule="evenodd" clip-rule="evenodd" d="M4.30007 0.242496C3.2471 0.505988 2.45888 0.955938 1.6649 1.74692C-0.554841 3.9584 -0.554841 7.42069 1.6649 9.64056C3.20033 11.176 5.39055 11.692 7.43146 10.999L8.02823 10.7964L13.7728 16.541L19.5173 22.2856L18.8967 23.2118C18.5552 23.7212 18.0787 24.5319 17.8378 25.0134C17.0934 26.5012 16.8233 27.3611 16.296 29.9218C16.2381 30.203 16.236 30.2032 13.5823 30.2032H10.9265L10.6256 29.5467C10.4536 29.171 9.99911 28.5652 9.56341 28.1308C7.31729 25.8907 3.90502 25.8907 1.6649 28.1308C-0.554841 30.3505 -0.554841 33.8076 1.6649 36.0273C3.43168 37.7941 5.89916 38.1859 8.1973 37.0646C9.02605 36.6602 10.2563 35.4174 10.6256 34.6114L10.9265 33.9549H13.5823C16.236 33.9549 16.2381 33.9551 16.296 34.2363C16.8239 36.7998 17.0946 37.6612 17.8391 39.1447C18.0807 39.6262 18.5587 40.4354 18.9012 40.943L19.524 41.866L13.776 47.6138L8.02823 53.3616L7.43146 53.1591C5.39055 52.4661 3.20033 52.9821 1.6649 54.5175C-0.554966 56.7374 -0.554966 60.2008 1.6649 62.4106C3.89614 64.6317 7.34893 64.6332 9.55791 62.4141C11.0945 60.8705 11.6111 58.6833 10.9199 56.6475L10.7173 56.0507L16.4651 50.3029L22.2129 44.555L23.136 45.1778C24.8577 46.3396 26.9223 47.2122 28.811 47.5762C29.2237 47.6557 29.6879 47.7479 29.8427 47.7808C30.1238 47.8408 30.1241 47.8436 30.1241 50.4966V53.1524L29.4675 53.4533C29.0919 53.6254 28.4861 54.0798 28.0516 54.5155C25.8115 56.7618 25.8115 60.1806 28.0516 62.4106C30.2829 64.6317 33.7357 64.6332 35.9447 62.4141C37.7107 60.6399 38.1021 58.1897 36.9899 55.8716C36.6026 55.0647 35.3424 53.8245 34.5323 53.4533L33.8757 53.1524V50.4966C33.8757 47.8429 33.876 47.8408 34.1571 47.7829C36.7206 47.2551 37.582 46.9843 39.0655 46.2399C39.547 45.9982 40.3562 45.5203 40.8638 45.1778L41.7869 44.555L47.5347 50.3029L53.2825 56.0507L53.0799 56.6475C52.3867 58.6894 52.9037 60.8829 54.4384 62.4106C56.6696 64.6317 60.1224 64.6332 62.3314 62.4141C64.5524 60.1829 64.5539 56.7367 62.3349 54.5175C60.7995 52.9821 58.6092 52.4661 56.5683 53.1591L55.9716 53.3616L50.2238 47.6138L44.4758 41.866L45.0986 40.943C45.4411 40.4354 45.9191 39.6262 46.1607 39.1447C46.9052 37.6612 47.1759 36.7998 47.7038 34.2363C47.7617 33.9551 47.7638 33.9549 50.4175 33.9549H53.0733L53.3742 34.6114C53.7453 35.4215 54.9855 36.6817 55.7925 37.069C58.1111 38.1816 60.566 37.7892 62.3314 36.0238C64.5525 33.8028 64.554 30.3499 62.3349 28.1308C60.0948 25.8907 56.6825 25.8907 54.4364 28.1308C54.0007 28.5652 53.5462 29.171 53.3742 29.5467L53.0733 30.2032H50.4175C47.7638 30.2032 47.7617 30.203 47.7038 29.9218C47.1759 27.3583 46.9052 26.4969 46.1607 25.0134C45.9191 24.5319 45.4411 23.7227 45.0986 23.2151L44.4758 22.2921L50.2238 16.5443L55.9716 10.7964L56.5683 10.999C58.6051 11.6905 60.7956 11.1729 62.3314 9.63705C64.5525 7.41607 64.554 3.96315 62.3349 1.74404C60.1158 -0.474949 56.6695 -0.473448 54.4384 1.74754C52.9037 3.27522 52.3867 5.4687 53.0799 7.51061L53.2825 8.10737L47.5347 13.8552L41.7869 19.6031L40.8638 18.9803C40.3562 18.6378 39.547 18.1598 39.0655 17.9182C37.582 17.1738 36.7206 16.903 34.1571 16.3752C33.876 16.3173 33.8757 16.3152 33.8757 13.6615V11.0057L34.5323 10.7048C35.3383 10.3355 36.5811 9.10519 36.9855 8.27645C38.1067 5.9783 37.7149 3.51083 35.9482 1.74404C33.729 -0.474949 30.2828 -0.473448 28.0516 1.74754C25.8115 3.97753 25.8115 7.39631 28.0516 9.64256C28.4861 10.0782 29.0919 10.5327 29.4675 10.7048L30.1241 11.0057V13.6615C30.1241 16.3152 30.1238 16.3173 29.8427 16.3752C27.2819 16.9024 26.422 17.1725 24.9343 17.917C24.4528 18.1578 23.6421 18.6343 23.1327 18.9758L22.2064 19.5965L16.4619 13.8519L10.7173 8.10737L10.9199 7.51061C11.6128 5.4697 11.0968 3.27947 9.56141 1.74404C8.14391 0.326533 6.19141 -0.230715 4.30007 0.242496ZM32.5211 21.5781C33.1179 21.7438 33.7262 22.4403 33.8275 23.0737C33.9009 23.5322 33.96 23.5911 34.6915 23.9334C35.6938 24.4025 36.4275 25.1388 36.9013 26.1514C37.6574 27.7673 37.4538 29.1535 36.3801 29.7014C35.1395 30.3341 33.9021 29.6785 33.6345 28.2465C33.4726 27.3793 33.1954 27.2019 32.0029 27.2019C30.8725 27.2019 30.3742 27.465 30.3742 28.0618C30.3742 28.5141 30.6943 28.8 33.5338 30.8829C34.8245 31.8298 36.0756 32.8425 36.3139 33.1334C37.6165 34.7231 37.7102 36.953 36.5463 38.669C36.0336 39.4249 35.5111 39.8525 34.5774 40.2799C33.9655 40.5601 33.9001 40.63 33.828 41.0818C33.6578 42.146 32.549 42.8662 31.5111 42.5868C30.8834 42.4178 30.2766 41.7368 30.1723 41.0844C30.0989 40.6259 30.0398 40.5669 29.3083 40.2247C28.3145 39.7596 27.5724 39.02 27.1142 38.0381C26.3433 36.3857 26.5586 35.0006 27.67 34.4626C28.3116 34.152 28.5869 34.1423 29.2497 34.4076C29.8173 34.6347 30.3742 35.425 30.3742 36.0037C30.3742 36.1965 30.5064 36.4745 30.6812 36.6492C30.9564 36.9246 31.0924 36.9562 31.9999 36.9562C32.9074 36.9562 33.0434 36.9246 33.3186 36.6492C33.6533 36.3147 33.715 35.8662 33.4693 35.5565C33.3834 35.448 32.0962 34.459 30.609 33.3585C27.6726 31.1856 27.2714 30.7653 26.8536 29.4229C26.7266 29.0144 26.6225 28.4089 26.6225 28.0773C26.6225 27.2763 26.9934 26.1218 27.4763 25.4201C27.9228 24.771 28.882 24.021 29.5703 23.7827C29.9821 23.64 30.0562 23.5499 30.1883 23.0295C30.361 22.3492 30.883 21.7422 31.4324 21.5824C31.948 21.4324 31.9959 21.4322 32.5211 21.5781Z" fill="url(#paint0_linear_27_954)"/>
<defs>
<linearGradient id="paint0_linear_27_954" x1="20.3328" y1="0.0773928" x2="52.5946" y2="63.2625" gradientUnits="userSpaceOnUse">
<stop offset="0.260417" stop-color="#19AEA5"/>
<stop offset="1" stop-color="#18D099"/>
</linearGradient>
</defs>
</svg>
