<?xml version="1.0" encoding="UTF-8" standalone="no"?>
<!DOCTYPE svg PUBLIC "-//W3C//DTD SVG 1.1//EN" "http://www.w3.org/Graphics/SVG/1.1/DTD/svg11.dtd">
<svg width="100%" height="100%" viewBox="0 0 285 57" version="1.1" xmlns="http://www.w3.org/2000/svg" xmlns:xlink="http://www.w3.org/1999/xlink" xml:space="preserve" xmlns:serif="http://www.serif.com/" style="fill-rule:evenodd;clip-rule:evenodd;stroke-linejoin:round;stroke-miterlimit:2;">
    <g transform="matrix(1,0,0,1,-0.7,-0.649033)">
        <g>
            <path d="M57.9,19.9L46.6,4.8C44.6,2.2 41.7,0.7 38.4,0.7C35.1,0.7 32.1,2.2 30.2,4.8L18.8,20C16.9,22.5 15.7,25.7 15.7,29.1C15.7,37.4 22.5,44.2 30.8,44.2L26.6,49.7C25.8,50.8 24.6,51.4 23.2,51.4C21.9,51.4 20.6,50.8 19.8,49.7L8.6,34.6C6.2,31.4 6.2,26.8 8.6,23.6L19.9,8.4C20.6,7.4 21.7,6.9 22.8,6.7C23.2,6.7 23.6,6.7 23.9,6.8L27.7,1.7C26,0.9 24.1,0.5 22.2,0.7C19.3,1 16.8,2.4 15.1,4.7L3.7,19.9C-0.3,25.3 -0.3,32.8 3.7,38.2L15,53.3C17,55.9 19.9,57.4 23.2,57.4C26.5,57.4 29.5,55.9 31.4,53.3L42.7,38.1C43.9,36.5 44.8,34.7 45.3,32.8L39,32.8C37.6,35.9 34.4,38.1 30.8,38.1C25.8,38.1 21.8,34 21.8,29.1C21.8,24.1 25.9,20.1 30.8,20.1C34.4,20.1 37.6,22.3 39,25.4L45.4,25.4C43.7,18.8 37.8,14 30.8,14L35,8.4C35.8,7.3 37,6.7 38.4,6.7C39.7,6.7 41,7.3 41.8,8.4L53.1,23.5C55.5,26.7 55.5,31.3 53.1,34.5L41.8,49.7C41.1,50.7 40,51.3 38.7,51.4C38.4,51.4 38,51.4 37.7,51.3L33.9,56.3C35.3,57 36.8,57.4 38.4,57.4L39.2,57.4C42.2,57.2 44.9,55.7 46.6,53.3L57.9,38.2C62,32.8 62,25.3 57.9,19.9Z" style="fill:url(#_Linear1);fill-rule:nonzero;"/>
            <g>
                <path d="M254.8,34.3L254.8,27L260.9,27L260.9,21.6L254.8,21.6L254.8,15.1L248.5,15.1L248.5,21.6L244.5,21.6L244.5,27L248.5,27L248.5,34.3C248.5,39 252.4,42.9 257.1,42.9L261.3,42.9L261.3,36.6L257.1,36.6C255.9,36.6 254.8,35.6 254.8,34.3Z" style="fill:white;fill-rule:nonzero;"/>
                <rect x="95.7" y="21.7" width="6.3" height="21.1" style="fill:white;"/>
                <rect x="143.5" y="15.1" width="6.3" height="27.7" style="fill:white;"/>
                <path d="M160.6,22.6C161.4,21.8 162.3,21.2 163.4,20.7C164.5,20.2 165.6,20 166.8,20C167.6,20 168.5,20.1 169.3,20.3C170.1,20.5 170.9,20.9 171.6,21.3C172.3,21.7 172.9,22.3 173.5,23C174,23.7 174.5,24.4 174.8,25.3L181.4,25.3C181,23.5 180.3,21.8 179.3,20.5C178.3,19.1 177.1,18 175.8,17.1C174.5,16.2 173,15.5 171.5,15.1C170,14.7 168.4,14.4 167,14.4C164.9,14.4 162.9,14.8 161.1,15.5C159.3,16.3 157.7,17.3 156.3,18.6C154.9,19.9 153.9,21.4 153.1,23.2C152.3,25 151.9,26.9 151.9,28.9C151.9,30.9 152.3,32.8 153.1,34.6C153.9,36.4 155,37.9 156.3,39.2C157.7,40.5 159.3,41.5 161.1,42.3C162.9,43.1 164.9,43.4 167,43.4C168.5,43.4 170,43.2 171.5,42.7C173,42.2 174.5,41.6 175.8,40.7C177.1,39.8 178.3,38.7 179.3,37.3C180.3,35.9 181,34.4 181.4,32.6L174.8,32.6C174.5,33.5 174.1,34.2 173.6,34.9C173.1,35.6 172.4,36.1 171.8,36.6C171.1,37 170.4,37.4 169.5,37.6C168.7,37.8 167.9,37.9 167,37.9C165.8,37.9 164.7,37.7 163.6,37.2C162.5,36.7 161.6,36.1 160.8,35.3C160,34.5 159.4,33.6 158.9,32.5C158.4,31.4 158.2,30.2 158.2,28.9C158.2,27.6 158.4,26.4 158.9,25.3C159.2,24.3 159.8,23.4 160.6,22.6Z" style="fill:white;fill-rule:nonzero;"/>
                <path d="M209.2,34.3L208.9,33L204.3,21.7L197.4,21.7L205.9,41.5L201.9,50.1L208.7,50.1L221,21.7L214.2,21.7L209.2,34.3Z" style="fill:white;fill-rule:nonzero;"/>
                <path d="M284,27.9C283.4,26.5 282.6,25.3 281.6,24.3C280.6,23.3 279.3,22.5 277.9,21.9C276.5,21.3 274.9,21 273.1,21C271.4,21 269.8,21.3 268.3,21.9C266.9,22.5 265.6,23.3 264.6,24.3C263.6,25.3 262.8,26.5 262.2,27.9C261.6,29.3 261.3,30.7 261.3,32.3C261.3,33.8 261.6,35.3 262.2,36.7C262.8,38.1 263.6,39.3 264.6,40.3C265.6,41.3 266.9,42.1 268.3,42.7C269.7,43.3 271.3,43.6 273,43.6C274.8,43.6 276.4,43.3 277.8,42.7C279.3,42.1 280.5,41.3 281.5,40.3C282.5,39.3 283.3,38.1 283.9,36.7C284.5,35.3 284.8,33.9 284.8,32.3C284.9,30.7 284.6,29.3 284,27.9ZM278.2,34.7C277.9,35.4 277.5,36 277,36.5C276.5,37 275.9,37.4 275.3,37.7C274.6,38 273.9,38.1 273.1,38.1C272.3,38.1 271.6,38 271,37.7C270.3,37.4 269.8,37 269.2,36.5C268.7,36 268.3,35.4 268,34.6C267.7,33.9 267.6,33.1 267.6,32.2C267.6,31.3 267.7,30.5 268,29.8C268.3,29.1 268.7,28.5 269.2,28C269.7,27.5 270.3,27.1 270.9,26.8C271.6,26.5 272.3,26.4 273,26.4C273.8,26.4 274.5,26.5 275.2,26.8C275.9,27.1 276.4,27.5 276.9,28C277.4,28.5 277.8,29.1 278.1,29.8C278.4,30.5 278.5,31.3 278.5,32.2C278.6,33.1 278.5,33.9 278.2,34.7Z" style="fill:white;fill-rule:nonzero;"/>
                <path d="M135.5,21.7L135.5,22.9C134.9,22.5 134.2,22.1 133.3,21.7C132.2,21.2 130.9,21 129.5,21C127.8,21 126.2,21.3 124.8,21.9C123.4,22.5 122.2,23.3 121.2,24.3C120.2,25.3 119.5,26.5 118.9,27.9C118.4,29.3 118.1,30.7 118.1,32.3C118.1,33.8 118.4,35.3 118.9,36.7C119.4,38.1 120.2,39.3 121.2,40.3C122.2,41.3 123.4,42.1 124.8,42.7C126.2,43.3 127.8,43.6 129.5,43.6C130.9,43.6 132.1,43.4 133.2,42.9C134,42.6 134.8,42.2 135.4,41.7L135.4,42.9L141.7,42.9L141.7,21.7L135.5,21.7ZM135.3,34.7C135,35.4 134.6,36 134.1,36.6C133.6,37.1 133,37.5 132.3,37.8C131.6,38.1 130.9,38.2 130.1,38.2C129.3,38.2 128.6,38.1 127.9,37.8C127.2,37.5 126.6,37.1 126.1,36.6C125.6,36.1 125.2,35.5 124.9,34.7C124.6,34 124.5,33.2 124.5,32.3C124.5,31.4 124.6,30.6 124.9,29.9C125.2,29.2 125.6,28.6 126.1,28.1C126.6,27.6 127.2,27.2 127.9,26.9C128.6,26.6 129.3,26.5 130.1,26.5C130.9,26.5 131.6,26.6 132.3,26.9C133,27.2 133.6,27.6 134.1,28.1C134.6,28.6 135,29.2 135.3,29.9C135.6,30.6 135.7,31.4 135.7,32.3C135.7,33.1 135.6,33.9 135.3,34.7Z" style="fill:white;fill-rule:nonzero;"/>
                <path d="M241.5,24.3C240.5,23.3 239.3,22.5 237.9,21.9C236.5,21.3 234.9,21 233.2,21C232.5,21 231.8,21.1 231.2,21.2C230.6,21.3 229.9,21.5 229.4,21.7C228.8,21.9 228.3,22.2 227.8,22.5C227.6,22.6 227.5,22.7 227.3,22.9L227.3,21.7L221,21.7L221,50L227.3,50L227.3,41.6C228.1,42.2 228.9,42.6 229.9,43C230.9,43.3 232,43.5 233.3,43.5C235,43.5 236.6,43.2 238,42.6C239.4,42 240.6,41.2 241.5,40.2C242.5,39.2 243.2,38 243.7,36.6C244.2,35.2 244.5,33.8 244.5,32.2C244.5,30.7 244.2,29.2 243.7,27.8C243.2,26.5 242.5,25.3 241.5,24.3ZM237.8,34.7C237.5,35.4 237.1,36 236.6,36.5C236.1,37 235.5,37.4 234.8,37.7C234.1,38 233.4,38.1 232.6,38.1C231.8,38.1 231.1,38 230.4,37.7C229.7,37.4 229.1,37 228.6,36.5C228.1,36 227.7,35.4 227.4,34.7C227.1,34 227,33.2 227,32.3C227,31.4 227.1,30.6 227.4,29.9C227.7,29.2 228.1,28.6 228.6,28C229.1,27.5 229.7,27.1 230.4,26.8C231.1,26.5 231.8,26.4 232.6,26.4C233.4,26.4 234.1,26.5 234.8,26.8C235.5,27.1 236.1,27.5 236.6,28C237.1,28.5 237.5,29.1 237.8,29.9C238.1,30.6 238.2,31.4 238.2,32.3C238.2,33.1 238.1,33.9 237.8,34.7Z" style="fill:white;fill-rule:nonzero;"/>
                <path d="M118.2,21.7L114.9,21.7C113.1,21.7 111.5,22.1 110,22.9L110,21.7L103.7,21.7L103.7,42.8L110,42.8L110,32.1C110,29.4 112.2,27.2 114.9,27.2L118.2,27.2L118.2,21.7Z" style="fill:white;fill-rule:nonzero;"/>
                <path d="M194.1,21.7C192.3,21.7 190.7,22.1 189.2,22.9L189.2,21.7L182.9,21.7L182.9,42.8L189.2,42.8L189.2,32.1C189.2,29.4 191.4,27.2 194.1,27.2L197.4,27.2L197.4,21.7L194.1,21.7Z" style="fill:white;fill-rule:nonzero;"/>
                <path d="M88.9,15.1L81.4,34.1L81.3,34.1L73.7,15.1L66.9,15.1L78.4,42.8L84.2,42.8L95.7,15.1L88.9,15.1Z" style="fill:white;fill-rule:nonzero;"/>
                <ellipse cx="98.8" cy="17.9" rx="3.1" ry="2.8" style="fill:white;"/>
            </g>
        </g>
    </g>
    <defs>
        <linearGradient id="_Linear1" x1="0" y1="0" x2="1" y2="0" gradientUnits="userSpaceOnUse" gradientTransform="matrix(40.1487,40.1487,-40.1487,40.1487,10.751,8.9794)"><stop offset="0" style="stop-color:rgb(81,230,154);stop-opacity:1"/><stop offset="1" style="stop-color:rgb(18,190,145);stop-opacity:1"/></linearGradient>
    </defs>
</svg>
