<svg width="64" height="60" viewBox="0 0 64 60" fill="none" xmlns="http://www.w3.org/2000/svg">
<path fill-rule="evenodd" clip-rule="evenodd" d="M28.9928 0.453543C28.5707 0.630219 28.4228 0.898873 28.274 1.75836C28.0437 3.0895 27.4201 4.13384 26.4621 4.79302C26.161 5.00009 25.3436 5.41157 24.6456 5.70718C22.4498 6.63731 20.8115 6.55338 19.3223 5.43457C18.9562 5.1594 18.5516 4.93431 18.4232 4.93431C17.9525 4.93431 17.4596 5.33543 15.5518 7.27094C13.2716 9.58408 13.2784 9.5667 14.1619 10.8571C15.2162 12.3971 15.2664 13.7218 14.3549 15.9431C14.0471 16.6931 13.6115 17.5673 13.3867 17.8855C12.7762 18.7504 11.8041 19.338 10.5911 19.5758C8.96832 19.8939 9.00473 19.8089 9.00473 23.2817C9.00473 25.2229 9.05302 26.2479 9.1533 26.4363C9.36281 26.8297 9.6542 27.0259 10.0354 27.0306C10.615 27.0378 11.7346 27.4249 12.3262 27.8224C13.1419 28.3707 13.6733 29.1293 14.3464 30.7067C14.9027 32.0104 14.9331 32.143 14.9382 33.2944C14.9441 34.591 14.7644 35.1154 13.9331 36.2254C13.3024 37.0678 13.3709 37.195 15.7386 39.5774C18.1922 42.0466 18.2614 42.0795 19.3376 41.2893C20.2841 40.5947 20.9363 40.3831 22.0989 40.3938C23.008 40.4021 23.2798 40.4682 24.5593 40.9905C26.0691 41.6069 26.7551 42.033 27.3206 42.7053C27.7627 43.2309 28.135 44.0822 28.2354 44.7971C28.3451 45.5784 28.5421 46.0559 28.8147 46.2018C29.1155 46.3627 34.8833 46.3627 35.184 46.2018C35.4601 46.054 35.6587 45.5689 35.7618 44.7908C35.9165 43.6237 36.6658 42.4878 37.748 41.7795C38.4458 41.3229 40.7407 40.4591 41.49 40.3711C42.5291 40.2488 43.5123 40.5102 44.4635 41.1615C45.8014 42.0774 45.7577 42.0956 48.2602 39.5774C50.6279 37.195 50.6963 37.0678 50.0656 36.2254C49.2571 35.1457 49.0588 34.5823 49.0562 33.3582C49.054 32.3438 49.1051 32.0808 49.4899 31.1227C50.1605 29.4525 50.4556 28.9204 51.0297 28.3463C51.6718 27.7042 52.412 27.3305 53.4121 27.143C54.3908 26.9597 54.6795 26.8187 54.8522 26.4398C54.9427 26.2413 54.994 25.0951 54.994 23.2774C54.994 19.8484 55.0019 19.8697 53.6315 19.6311C52.5754 19.4471 52.0498 19.2322 51.403 18.72C50.7032 18.1657 50.2672 17.4776 49.6292 15.9206C48.7098 13.677 48.7786 12.3213 49.8904 10.7687C50.7367 9.58689 50.7302 9.57194 48.3192 7.15635C46.9819 5.81666 46.1149 5.04545 45.8825 4.98924C45.4875 4.89355 45.2328 4.99741 44.4548 5.57087C43.1237 6.55223 41.4535 6.59695 39.3532 5.70718C37.822 5.0586 37.0943 4.57623 36.5804 3.86927C36.0707 3.16806 35.8592 2.64251 35.7075 1.70075C35.4955 0.38341 35.55 0.403849 32.1557 0.37204C30.5591 0.356966 29.1358 0.39363 28.9928 0.453543ZM35.0996 11.3736C40.468 12.7409 44.3909 17.7889 44.3909 23.33C44.3909 28.8633 40.8045 33.6264 35.3847 35.2916C34.3153 35.62 34.0787 35.6448 31.9994 35.6448C29.9236 35.6448 29.6823 35.6196 28.6241 35.2941C26.4954 34.6393 24.8199 33.6481 23.3014 32.1455C21.0343 29.9021 19.8219 27.1649 19.6515 23.9049C19.4733 20.4961 20.6737 17.3325 23.1076 14.7975C26.2538 11.5202 30.6958 10.2521 35.0996 11.3736ZM30.7662 16.0526C28.6703 16.4278 26.7778 17.7284 25.6922 19.5397L25.2458 20.2845L25.0307 19.8591C24.6909 19.1872 24.3275 18.8588 23.9231 18.8588C23.4705 18.8588 22.9293 19.3687 22.9293 19.7952C22.9293 20.2565 24.7782 24.0514 25.0822 24.2142C25.2237 24.29 25.4741 24.352 25.6385 24.352C25.928 24.352 29.2063 22.1201 29.5402 21.6956C29.8013 21.3637 29.7334 20.7233 29.4043 20.414C28.9871 20.0222 28.4464 20.0617 27.8089 20.5307C27.514 20.7475 27.2727 20.8872 27.2727 20.8411C27.2727 20.6052 28.1342 19.5562 28.6866 19.1194C29.9573 18.1151 31.86 17.7202 33.347 18.1525C34.527 18.4955 35.0642 18.8261 35.9901 19.7786C36.6668 20.4747 36.934 20.6667 37.2386 20.6753C37.7342 20.6895 38.259 20.2135 38.259 19.75C38.259 19.0981 37.0712 17.7916 35.7679 17.0098C34.354 16.1618 32.3254 15.7736 30.7662 16.0526ZM37.9936 22.4746C37.3716 22.7633 34.5224 24.7929 34.3327 25.0825C33.969 25.6375 34.4795 26.5237 35.1628 26.5237C35.357 26.5237 35.8242 26.3161 36.201 26.0623L36.8862 25.6009L36.5866 26.1341C36.1679 26.879 35.0638 27.8856 34.2673 28.2486C32.0737 29.2481 29.7487 28.7518 27.9958 26.9098C27.3046 26.1835 27.0683 26.0127 26.7544 26.0127C26.2635 26.0127 25.7397 26.5147 25.7397 26.9851C25.7397 27.7838 27.5012 29.453 29.0777 30.1481C32.2899 31.5644 36.1416 30.4322 38.1069 27.4938L38.741 26.5456L38.9706 27.0545C39.1899 27.5409 39.6902 27.9289 40.098 27.9289C40.4578 27.9289 40.9844 27.3518 40.9829 26.9591C40.9812 26.5339 39.3547 22.9222 39.0412 22.6477C38.7213 22.3674 38.355 22.3069 37.9936 22.4746ZM3.29261 50.4696C1.98574 50.8794 0.930033 51.8112 0.335111 53.08C0.0412901 53.7067 -0.00125016 53.9602 2.73217e-05 55.0754C0.00143255 56.2599 0.0310719 56.4095 0.406651 57.1306C0.918665 58.1139 1.99648 59.1129 2.96902 59.5056L3.70319 59.8021H31.9994H60.2956L61.0297 59.5056C62.0009 59.1134 63.0796 58.1141 63.5934 57.1306C63.971 56.4079 63.9997 56.2624 64 55.0754C64.0003 53.9554 63.9578 53.7076 63.6569 53.0652C63.2181 52.129 62.22 51.1309 61.2838 50.6921L60.5511 50.3487L32.191 50.3247C8.98978 50.3052 3.73295 50.3315 3.29261 50.4696ZM43.9634 52.5487C44.8727 53.0349 45.5422 54.087 45.5399 55.0263C45.5375 56.0982 44.5654 57.4009 43.5606 57.6792C42.823 57.8833 4.56676 57.8805 3.88485 57.6762C2.23983 57.1834 1.42531 55.1477 2.2857 53.6796C2.68491 52.9983 3.22873 52.5879 4.01476 52.3742C4.46827 52.251 8.90317 52.2213 24.0151 52.2404L43.4328 52.2649L43.9634 52.5487Z" fill="url(#paint0_linear_27_655)"/>
<defs>
<linearGradient id="paint0_linear_27_655" x1="20.3333" y1="0.368653" x2="48.97" y2="60.7646" gradientUnits="userSpaceOnUse">
<stop offset="0.260417" stop-color="#19AEA5"/>
<stop offset="1" stop-color="#18D099"/>
</linearGradient>
</defs>
</svg>
