<svg width="64" height="64" viewBox="0 0 64 64" fill="none" xmlns="http://www.w3.org/2000/svg">
<path fill-rule="evenodd" clip-rule="evenodd" d="M29.2209 0.255919C28.5066 0.565533 27.6817 1.40562 27.4124 2.0976C27.3002 2.38563 27.2084 3.56566 27.2084 4.71983C27.2084 7.28978 27.5743 8.17322 28.9257 8.86706C29.6592 9.24366 30.0316 9.29557 32 9.29557C33.9684 9.29557 34.3408 9.24366 35.0743 8.86706C36.4287 8.17173 36.7916 7.29164 36.7916 4.70178C36.7916 3.31857 36.7001 2.37782 36.5276 1.98652C36.2085 1.26235 35.3572 0.459475 34.6229 0.190238C33.8405 -0.0968625 29.9249 -0.0490435 29.2209 0.255919ZM17.7666 10.6276C11.1682 13.9707 10.9674 14.1119 11.4814 15.0441C11.9692 15.929 12.3253 15.8081 18.6898 12.5947C22.0263 10.9101 24.9198 9.39568 25.1197 9.22933C25.3198 9.06318 25.4835 8.75877 25.4835 8.55317C25.4835 8.09023 24.8326 7.43305 24.3814 7.44031C24.1968 7.44347 21.2201 8.87767 17.7666 10.6276ZM38.8998 7.80704C38.4174 8.27537 38.4098 8.83822 38.8803 9.22933C39.0802 9.39568 41.9816 10.914 45.3278 12.6035C50.616 15.2735 51.4767 15.6531 51.9084 15.5057C52.61 15.2661 52.8789 14.4479 52.4182 13.9539C52.0086 13.5144 40.045 7.43491 39.59 7.43491C39.4212 7.43491 39.1107 7.60237 38.8998 7.80704ZM31.1484 11.942C30.9844 12.1694 30.85 12.6531 30.85 13.0169C30.85 13.9147 31.3064 14.5054 32 14.5054C32.6936 14.5054 33.15 13.9147 33.15 13.0169C33.15 12.1191 32.6936 11.5284 32 11.5284C31.6456 11.5284 31.3395 11.677 31.1484 11.942ZM1.81317 14.1324C1.39151 14.3365 0.8309 14.8113 0.567365 15.1877C0.142257 15.7949 0.0807339 16.1017 0.0228518 17.9065C-0.0610963 20.5152 0.0562011 21.0654 0.886674 21.9577C1.7894 22.9279 2.52251 23.1115 5.18739 23.0351C7.17301 22.9779 7.47411 22.9234 8.10794 22.5063C9.28225 21.7334 9.57607 20.8908 9.57243 18.3075C9.56956 16.3501 9.518 15.9993 9.13717 15.3464C8.8949 14.9313 8.37013 14.4219 7.94253 14.1867C7.26941 13.8166 6.90947 13.7669 4.87977 13.7643C2.96238 13.7619 2.45236 13.8231 1.81317 14.1324ZM56.0575 14.1867C55.6299 14.4219 55.1051 14.9313 54.8628 15.3464C54.482 15.9993 54.4304 16.3501 54.4276 18.3075C54.4239 20.8908 54.7177 21.7334 55.8921 22.5063C56.5259 22.9234 56.827 22.9779 58.8126 23.0351C61.4775 23.1115 62.2106 22.9279 63.1133 21.9577C63.9438 21.0654 64.0611 20.5152 63.9771 17.9065C63.9193 16.1022 63.8575 15.7945 63.4326 15.1861C62.6365 14.0458 61.7686 13.7606 59.1076 13.7641C57.0913 13.7669 56.73 13.817 56.0575 14.1867ZM26.1633 20.2485C23.1113 21.8686 20.5252 23.3309 20.4167 23.498C20.2724 23.7202 20.2957 23.8744 20.5035 24.0718C20.8778 24.4274 31.6945 30.135 31.9941 30.135C32.294 30.135 43.1226 24.4268 43.4965 24.0716C43.7042 23.8744 43.7276 23.7202 43.5833 23.498C43.3545 23.1458 32.4297 17.3029 32 17.3029C31.8419 17.3029 29.2153 18.6285 26.1633 20.2485ZM11.5651 21.6766C11.3156 22.0463 11.2909 22.2447 11.4513 22.5867C11.6765 23.0667 14.2743 24.553 14.888 24.553C15.4442 24.553 15.9395 23.9284 15.8668 23.3183C15.8151 22.8831 15.5625 22.6631 14.3671 22.0117C12.6651 21.0844 12.0171 21.0069 11.5651 21.6766ZM49.6329 22.0076C48.4427 22.6629 48.1847 22.8888 48.1332 23.3203C48.0605 23.9284 48.5566 24.553 49.112 24.553C49.7257 24.553 52.3235 23.0667 52.5487 22.5867C52.7091 22.2447 52.6844 22.0463 52.4349 21.6766C51.9787 21.0008 51.3201 21.0786 49.6329 22.0076ZM4.10449 25.568L3.63396 26.0246V31.9063C3.63396 35.5596 3.70833 37.923 3.83003 38.1438C4.25763 38.9195 5.28744 38.9741 5.78729 38.2475C5.86472 38.1349 5.92797 35.3216 5.92797 31.9956C5.92797 28.6697 5.86472 25.8564 5.78729 25.7438C5.64489 25.5367 4.90794 25.1112 4.69194 25.1112C4.62754 25.1112 4.36324 25.3168 4.10449 25.568ZM58.7369 25.3335C58.5261 25.4497 58.2901 25.6355 58.2127 25.7466C58.1353 25.8577 58.072 28.6697 58.072 31.9956C58.072 35.3216 58.1353 38.1349 58.2127 38.2475C58.7126 38.9741 59.7424 38.9195 60.17 38.1438C60.2917 37.923 60.366 35.5596 60.366 31.9063V26.0246L59.8955 25.568C59.3667 25.0544 59.277 25.0362 58.7369 25.3335ZM18.8037 26.0244C18.6367 26.1247 18.5919 27.9288 18.6291 33.0315L18.6795 39.9035L24.3335 42.9211C27.4432 44.5808 30.16 45.9205 30.3709 45.8981C30.7456 45.8585 30.7553 45.7018 30.8044 38.9586L30.8546 32.0595L25.2587 29.0971C19.0016 25.7846 19.1143 25.8382 18.8037 26.0244ZM44.3381 26.1608C44.0351 26.3124 41.3928 27.7024 38.4663 29.2493L33.1454 32.0621L33.1956 38.9599C33.2447 45.7018 33.2544 45.8585 33.6291 45.8981C33.84 45.9205 36.5568 44.5808 39.6665 42.9211L45.3205 39.9035L45.3708 32.9933C45.4256 25.4456 45.4495 25.6043 44.3381 26.1608ZM13.059 40.209C11.4396 41.0876 11.0795 41.5952 11.5651 42.3147C12.0171 42.9843 12.6651 42.9069 14.3671 41.9796C15.5625 41.3282 15.8151 41.1082 15.8668 40.673C15.9408 40.0514 15.4398 39.4364 14.8644 39.4428C14.6436 39.4452 13.8312 39.79 13.059 40.209ZM48.4025 39.794C48.2074 40.0034 48.0966 40.3649 48.1332 40.673C48.1849 41.1082 48.4375 41.3282 49.6329 41.9796C51.3349 42.9069 51.9829 42.9843 52.4349 42.3147C52.9244 41.5894 52.5614 41.0842 50.9167 40.2028C49.3215 39.348 48.8845 39.277 48.4025 39.794ZM2.00119 41.1786C1.19487 41.5302 0.226589 42.6574 0.0801589 43.4149C0.0126937 43.7643 -0.0131807 44.9658 0.0228518 46.0848C0.0807339 47.889 0.142449 48.1968 0.567365 48.8052C1.36353 49.9454 2.23138 50.2307 4.89242 50.2271C6.90871 50.2244 7.26999 50.1743 7.94253 49.8046C8.37013 49.5694 8.8949 49.06 9.13717 48.6448C9.518 47.9919 9.56956 47.6412 9.57243 45.6838C9.57607 43.1004 9.28225 42.2579 8.10794 41.485C7.45916 41.058 7.20348 41.0159 4.99055 40.9731C3.28341 40.94 2.41097 40.9999 2.00119 41.1786ZM56.437 41.1916C54.84 41.8864 54.4235 42.8234 54.4276 45.7121C54.4304 47.6403 54.4828 47.9934 54.8628 48.6448C55.1051 49.06 55.6299 49.5694 56.0575 49.8046C56.73 50.1743 57.0913 50.2244 59.1076 50.2271C61.7686 50.2307 62.6365 49.9454 63.4326 48.8052C63.8575 48.1968 63.9193 47.889 63.9771 46.0848C64.0132 44.9658 63.9873 43.7643 63.9198 43.4149C63.7688 42.6329 62.7877 41.5153 61.9565 41.1782C61.1229 40.8401 57.223 40.8496 56.437 41.1916ZM11.6838 48.7416C11.2303 49.1818 11.1903 49.7244 11.5832 50.1058C11.7386 50.2569 14.6342 51.7775 18.0178 53.4852C24.4646 56.7387 24.8171 56.8595 25.3025 55.9786C25.6059 55.4283 25.3949 54.8338 24.7726 54.4862C22.8236 53.3973 12.6394 48.3695 12.3828 48.3695C12.2091 48.3695 11.8946 48.5369 11.6838 48.7416ZM45.0355 51.5279C40.9652 53.586 38.7479 54.809 38.6327 55.0597C38.519 55.3071 38.5328 55.6059 38.6716 55.9016C39.1333 56.8853 39.4553 56.7806 45.835 53.5693C49.1362 51.9075 52.031 50.3782 52.2683 50.1706C52.5056 49.9629 52.6995 49.6403 52.6995 49.4535C52.6995 49.0194 52.0341 48.368 51.5975 48.3745C51.4131 48.3773 48.4602 49.7962 45.0355 51.5279ZM31.1484 49.8995C30.9844 50.1269 30.85 50.6106 30.85 50.9744C30.85 51.8722 31.3064 52.4629 32 52.4629C32.6936 52.4629 33.15 51.8722 33.15 50.9744C33.15 50.0766 32.6936 49.4859 32 49.4859C31.6456 49.4859 31.3395 49.6345 31.1484 49.8995ZM28.9257 55.1242C27.5743 55.8181 27.2084 56.7015 27.2084 59.2715C27.2084 61.5642 27.3541 62.1454 28.1311 62.952C28.9572 63.8098 29.6564 63.999 32 63.999C34.3436 63.999 35.0428 63.8098 35.8689 62.952C36.6459 62.1454 36.7916 61.5642 36.7916 59.2715C36.7916 56.7015 36.4257 55.8181 35.0743 55.1242C34.3408 54.7476 33.9684 54.6957 32 54.6957C30.0316 54.6957 29.6592 54.7476 28.9257 55.1242Z" fill="url(#paint0_linear_27_648)"/>
<defs>
<linearGradient id="paint0_linear_27_648" x1="20.3333" y1="-0.000976323" x2="52.5947" y2="63.1848" gradientUnits="userSpaceOnUse">
<stop offset="0.260417" stop-color="#5DED9C"/>
<stop offset="1" stop-color="#0EBD91"/>
</linearGradient>
</defs>
</svg>
