<svg width="77" height="32" viewBox="0 0 77 32" fill="none" xmlns="http://www.w3.org/2000/svg">
<rect width="77" height="32" rx="4" fill="#55E796"/>
<path fill-rule="evenodd" clip-rule="evenodd" d="M25.6175 9.39464C24.9903 9.42585 24.4221 9.46747 24.3548 9.48706C24.1937 9.53398 24.069 9.66301 24.0242 9.82918C23.9639 10.0532 24.0283 10.1627 24.4924 10.6257C24.716 10.8488 24.8989 11.0456 24.8989 11.063C24.8989 11.0804 23.6374 12.3563 22.0954 13.8982L19.292 16.7019L17.9794 15.3917C16.5336 13.9487 16.5216 13.9391 16.1669 13.9413C16.0542 13.942 15.9296 13.9652 15.8545 13.9995C15.7687 14.0387 15.164 14.6205 13.9248 15.856C12.2897 17.4862 12.1142 17.671 12.0581 17.8207C11.932 18.157 12.0106 18.455 12.3003 18.7391C12.5447 18.9788 12.698 19.0535 12.9449 19.0535C13.3125 19.0535 13.3069 19.0581 14.815 17.5536L16.1828 16.1891L17.5026 17.503C18.3195 18.3162 18.8661 18.8367 18.937 18.8691C19.1216 18.9532 19.3072 18.9653 19.5128 18.9066L19.6972 18.854L22.9527 15.6008L26.2082 12.3477L26.6589 12.7891C27.0265 13.1492 27.1309 13.2345 27.2256 13.2523C27.5142 13.3065 27.7956 13.0861 27.8479 12.7651C27.8576 12.7055 27.8958 12.0008 27.9328 11.1989L28 9.74105L27.9334 9.60356C27.8202 9.36968 27.7077 9.32879 27.1909 9.33372C26.9527 9.336 26.2447 9.3634 25.6175 9.39464ZM25.0308 14.8993L23.8367 16.0937V19.4087V22.7237L23.9191 22.8061L24.0015 22.8884H25.1234H26.2453L26.3219 22.8058L26.3985 22.7231V18.2972V13.8713L26.3117 13.7881L26.2249 13.705L25.0308 14.8993ZM21.681 18.2504C21.0539 18.8785 20.474 19.4438 20.3923 19.5067L20.2439 19.6209V21.1586V22.6962L20.3248 22.7923L20.4057 22.8884H21.529H22.6524L22.727 22.8138C22.768 22.7728 22.8101 22.692 22.8204 22.6342C22.8307 22.5764 22.8351 21.3095 22.8302 19.8188L22.8214 17.1084L21.681 18.2504ZM16.6512 20.3276C16.6512 22.7641 16.6517 22.7739 16.8027 22.8547C16.8444 22.877 17.2399 22.8884 17.9741 22.8884H19.0824L19.1636 22.7919L19.2448 22.6954L19.2367 21.3002L19.2286 19.9049L19.0411 19.8841C18.7999 19.8573 18.548 19.762 18.318 19.6105C18.2174 19.5443 17.8119 19.1651 17.4168 18.768C17.0218 18.3709 16.6879 18.046 16.6748 18.046C16.6618 18.046 16.6512 19.0727 16.6512 20.3276ZM14.8193 18.8899C14.043 19.6613 13.99 19.7074 13.7414 19.8267C13.5976 19.8957 13.3921 19.9676 13.2847 19.9865L13.0896 20.0209V21.3723V22.7237L13.172 22.8061L13.2543 22.8884H14.3762H15.4981L15.5747 22.8117L15.6514 22.7351V20.4061C15.6514 19.1252 15.6479 18.0776 15.6436 18.0779C15.6393 18.0783 15.2684 18.4437 14.8193 18.8899Z" fill="#FDFDFD"/>
<path d="M42.748 20.5H36.994V11.162H38.632V19.058H42.748V20.5ZM45.8644 20.5H44.2264V11.162H45.8644V20.5ZM52.5815 20.5H50.5375L46.8695 11.162H48.7315L51.5595 18.722L54.3875 11.162H56.2495L52.5815 20.5ZM63.6674 20.5H57.2694V11.162H63.6674V12.604H58.9074V15.026H63.5694V16.468H58.9074V19.058H63.6674V20.5Z" fill="#FDFDFD"/>
</svg>
