<?xml version="1.0" encoding="UTF-8" standalone="no"?>
<!DOCTYPE svg PUBLIC "-//W3C//DTD SVG 1.1//EN" "http://www.w3.org/Graphics/SVG/1.1/DTD/svg11.dtd">
<svg width="100%" height="100%" viewBox="0 0 77 32" version="1.1" xmlns="http://www.w3.org/2000/svg" xmlns:xlink="http://www.w3.org/1999/xlink" xml:space="preserve" xmlns:serif="http://www.serif.com/" style="fill-rule:evenodd;clip-rule:evenodd;stroke-linejoin:round;stroke-miterlimit:2;">
    <path d="M77,4C77,1.792 75.208,0 73,0L4,0C1.792,0 0,1.792 0,4L0,28C0,30.208 1.792,32 4,32L73,32C75.208,32 77,30.208 77,28L77,4Z" style="fill:rgb(56,203,0);"/>
    <path d="M25.618,9.395C24.99,9.426 24.422,9.467 24.355,9.487C24.194,9.534 24.069,9.663 24.024,9.829C23.964,10.053 24.028,10.163 24.492,10.626C24.716,10.849 24.899,11.046 24.899,11.063C24.899,11.08 23.637,12.356 22.095,13.898L19.292,16.702L17.979,15.392C16.534,13.949 16.522,13.939 16.167,13.941C16.054,13.942 15.93,13.965 15.855,14C15.769,14.039 15.164,14.621 13.925,15.856C12.29,17.486 12.114,17.671 12.058,17.821C11.932,18.157 12.011,18.455 12.3,18.739C12.545,18.979 12.698,19.054 12.945,19.054C13.313,19.054 13.307,19.058 14.815,17.554L16.183,16.189L17.503,17.503C18.32,18.316 18.866,18.837 18.937,18.869C19.122,18.953 19.307,18.965 19.513,18.907L19.697,18.854L22.953,15.601L26.208,12.348L26.659,12.789C27.026,13.149 27.131,13.235 27.226,13.252C27.514,13.307 27.796,13.086 27.848,12.765C27.858,12.706 27.896,12.001 27.933,11.199L28,9.741L27.933,9.604C27.82,9.37 27.708,9.329 27.191,9.334C26.953,9.336 26.245,9.363 25.618,9.395ZM25.031,14.899L23.837,16.094L23.837,22.724L23.919,22.806L24.002,22.888L26.245,22.888L26.322,22.806L26.398,22.723L26.398,13.871L26.312,13.788L26.225,13.705L25.031,14.899ZM21.681,18.25C21.054,18.879 20.474,19.444 20.392,19.507L20.244,19.621L20.244,22.696L20.406,22.888L22.652,22.888L22.727,22.814C22.768,22.773 22.81,22.692 22.82,22.634C22.831,22.576 22.835,21.31 22.83,19.819L22.821,17.108L21.681,18.25ZM16.651,20.328C16.651,22.764 16.652,22.774 16.803,22.855C16.844,22.877 17.24,22.888 17.974,22.888L19.082,22.888L19.245,22.695L19.229,19.905L19.041,19.884C18.8,19.857 18.548,19.762 18.318,19.61C18.217,19.544 17.812,19.165 17.417,18.768C17.022,18.371 16.688,18.046 16.675,18.046C16.662,18.046 16.651,19.073 16.651,20.328ZM14.819,18.89C14.043,19.661 13.99,19.707 13.741,19.827C13.598,19.896 13.392,19.968 13.285,19.987L13.09,20.021L13.09,22.724L13.254,22.888L15.498,22.888L15.575,22.812L15.651,22.735L15.651,20.406C15.651,19.125 15.648,18.078 15.644,18.078C15.639,18.078 15.268,18.444 14.819,18.89Z" style="fill:rgb(253,253,253);"/>
    <path d="M42.748,20.5L36.994,20.5L36.994,11.162L38.632,11.162L38.632,19.058L42.748,19.058L42.748,20.5ZM45.864,20.5L44.226,20.5L44.226,11.162L45.864,11.162L45.864,20.5ZM52.582,20.5L50.538,20.5L46.87,11.162L48.731,11.162L51.56,18.722L54.388,11.162L56.25,11.162L52.582,20.5ZM63.667,20.5L57.269,20.5L57.269,11.162L63.667,11.162L63.667,12.604L58.907,12.604L58.907,15.026L63.569,15.026L63.569,16.468L58.907,16.468L58.907,19.058L63.667,19.058L63.667,20.5Z" style="fill:rgb(253,253,253);fill-rule:nonzero;"/>
</svg>
