<?xml version="1.0" encoding="UTF-8" standalone="no"?>
<!DOCTYPE svg PUBLIC "-//W3C//DTD SVG 1.1//EN" "http://www.w3.org/Graphics/SVG/1.1/DTD/svg11.dtd">
<svg width="100%" height="100%" viewBox="0 0 77 32" version="1.1" xmlns="http://www.w3.org/2000/svg" xmlns:xlink="http://www.w3.org/1999/xlink" xml:space="preserve" xmlns:serif="http://www.serif.com/" style="fill-rule:evenodd;clip-rule:evenodd;stroke-linejoin:round;stroke-miterlimit:2;">
    <path d="M77,4C77,1.792 75.208,0 73,0L4,0C1.792,0 0,1.792 0,4L0,28C0,30.208 1.792,32 4,32L73,32C75.208,32 77,30.208 77,28L77,4Z" style="fill:rgb(0,114,255);"/>
    <path d="M38.632,20.5L36.994,20.5L36.994,11.162L41.096,11.162C42.039,11.162 42.781,11.442 43.322,12.002C43.873,12.562 44.148,13.257 44.148,14.088C44.148,14.909 43.873,15.605 43.322,16.174C42.781,16.734 42.039,17.014 41.096,17.014L38.632,17.014L38.632,20.5ZM40.872,15.572C41.339,15.572 41.721,15.437 42.02,15.166C42.319,14.895 42.468,14.536 42.468,14.088C42.468,13.64 42.319,13.281 42.02,13.01C41.721,12.739 41.339,12.604 40.872,12.604L38.632,12.604L38.632,15.572L40.872,15.572ZM52.736,20.5L50.846,20.5L48.774,17.014L47.15,17.014L47.15,20.5L45.512,20.5L45.512,11.162L49.614,11.162C50.528,11.162 51.266,11.433 51.826,11.974C52.386,12.515 52.666,13.22 52.666,14.088C52.666,14.872 52.451,15.502 52.022,15.978C51.592,16.445 51.07,16.729 50.454,16.832L52.736,20.5ZM49.39,15.572C49.856,15.572 50.239,15.437 50.538,15.166C50.836,14.895 50.986,14.536 50.986,14.088C50.986,13.64 50.836,13.281 50.538,13.01C50.239,12.739 49.856,12.604 49.39,12.604L47.15,12.604L47.15,15.572L49.39,15.572ZM62.087,19.31C61.191,20.215 60.047,20.668 58.657,20.668C57.266,20.668 56.123,20.215 55.227,19.31C54.331,18.395 53.883,17.238 53.883,15.838C53.883,14.438 54.331,13.285 55.227,12.38C56.123,11.465 57.266,11.008 58.657,11.008C60.047,11.008 61.191,11.465 62.087,12.38C62.983,13.285 63.431,14.438 63.431,15.838C63.431,17.238 62.983,18.395 62.087,19.31ZM58.657,19.212C59.581,19.212 60.327,18.895 60.897,18.26C61.466,17.616 61.751,16.809 61.751,15.838C61.751,14.858 61.466,14.051 60.897,13.416C60.327,12.781 59.581,12.464 58.657,12.464C57.723,12.464 56.972,12.781 56.403,13.416C55.843,14.051 55.563,14.858 55.563,15.838C55.563,16.818 55.843,17.625 56.403,18.26C56.972,18.895 57.723,19.212 58.657,19.212Z" style="fill:rgb(253,253,253);fill-rule:nonzero;"/>
    <g transform="matrix(0.0021371,0,0,-0.0021371,10.4992,15.8071)">
        <g>
            <g>
                <path d="M6098.1,5005.9C5150.3,4867.4 4254,4382.6 3878.1,3806.9C3727.7,3579.4 3688.2,3462.6 3488.3,2692.9L3304.3,1980.6L2669.2,1604.7C2319,1398.9 2020.2,1214.9 2002.4,1199.1C1972.7,1167.4 1418.7,-935.8 1418.7,-1020.9C1418.7,-1046.6 1436.5,-1088.2 1458.3,-1111.9C1537.4,-1197 1592.8,-1175.2 2129.1,-858.6C2406.1,-696.3 2635.6,-565.8 2639.6,-567.7C2643.6,-571.7 2606,-730 2556.5,-917.9C2507,-1105.9 2467.5,-1278 2467.5,-1297.8C2467.5,-1386.8 2542.7,-1420.5 3017.6,-1541.2L3480.6,-1659.9L3468.7,-1719.3C3462.8,-1751 3409.3,-1964.6 3352,-2194.2C3237.2,-2637.4 3235.3,-2688.9 3324.3,-2734.4C3387.6,-2768.1 5433.5,-3294.4 5510.7,-3298.3C5621.5,-3302.3 5641.3,-3260.7 5769.9,-2760.1C5835.2,-2506.8 5890.6,-2295.1 5894.5,-2293.1C5898.5,-2289.1 6100.3,-2338.6 6345.6,-2401.9C6810.6,-2524.6 6858.1,-2532.5 6919.4,-2500.8C6962.9,-2477 6974.8,-2441.4 7075.7,-2047.7C7119.2,-1881.5 7156.8,-1741 7162.8,-1737.1C7166.8,-1733.2 7305.3,-1960.7 7473.4,-2245.6C7639.6,-2528.5 7792,-2768 7811.7,-2777.9C7869.1,-2809.6 7922.5,-2801.6 7977.9,-2752.2C8023.4,-2714.6 8061,-2584 8304.4,-1640.2C8456.8,-1052.5 8581.4,-552 8581.4,-528.2C8581.4,-504.4 8411.2,-197.8 8203.5,154.4C7993.7,506.6 7823.6,807.3 7825.6,825.2C7825.6,841 7908.7,1171.5 8011.6,1557.3L8195.6,2257.7L8193.6,2544.6C8191.6,2863.2 8163.9,3001.7 8037.3,3310.3C7778.1,3947.4 7097.4,4725 6604.8,4946.6C6505.9,4990.1 6444.5,5004 6317.9,5007.9C6228.7,5011.8 6131.8,5009.8 6098.1,5005.9ZM6499.8,4653.7C6836.2,4483.5 7303.1,3998.8 7580.1,3531.8C7789.8,3179.6 7894.7,2841.3 7892.7,2524.7C7890.7,2350.6 7870.9,2263.5 7613.7,1268.3C7461.4,680.6 7204.1,-320.5 7039.9,-957.7C6875.7,-1594.8 6735.2,-2129.1 6725.3,-2146.9C6713.4,-2174.6 6468.1,-2115.2 4821.9,-1689.8C3783.1,-1420.7 2908.6,-1195.1 2878.9,-1187.2C2847.2,-1181.3 2823.5,-1161.5 2823.5,-1147.6C2823.5,-1131.8 3080.7,-118.7 3397.3,1104.1C4064.1,3684.2 4014.6,3539.8 4325.3,3852.4C4430.2,3957.3 4582.5,4087.9 4663.6,4141.3C5122.6,4448 5827,4695.3 6252.4,4699.3C6377.1,4701.2 6424.6,4693.2 6499.8,4653.7ZM3179.7,1515.6C3179.7,1474 2764.2,-114.8 2748.4,-128.6C2728.6,-150.4 1826.4,-678.6 1820.4,-674.7C1812.5,-666.8 2245.8,983.4 2259.7,997.2C2279.5,1017 3148.1,1531.4 3165.9,1533.4C3173.7,1535.4 3179.7,1525.5 3179.7,1515.6ZM7991.7,-97L8264.7,-560L8053,-1377.2C7938.2,-1826.3 7837.3,-2200.3 7831.4,-2208.2C7823.5,-2216.1 7694.9,-2014.3 7544.5,-1757.1L7271.5,-1292.1L7485.2,-463.1C7603.9,-6 7704.8,368 7710.7,368C7716.6,368 7843.3,158.2 7991.7,-97ZM4701.2,-1976.7C5186,-2103.3 5583.7,-2208.2 5585.6,-2210.2C5593.5,-2218.1 5405.5,-2932.4 5393.7,-2946.3C5383.8,-2956.2 3616.9,-2509 3599.1,-2491.2C3585.2,-2479.3 3785.1,-1749.2 3800.9,-1749.2C3810.8,-1749.2 4216.5,-1852.1 4701.2,-1976.7Z" style="fill:white;fill-rule:nonzero;stroke:white;stroke-width:93.58px;"/>
                <path d="M5514.4,3324C5245.3,3272.6 5000,3140 4800.1,2942.1C4447.9,2589.9 4321.3,2063.6 4477.6,1598.6C4552.8,1375 4631.9,1248.4 4810,1068.3C5073.2,805.1 5366,684.4 5741.9,684.4C5983.3,684.4 6121.8,716.1 6345.4,826.9C6571,935.7 6816.3,1177.1 6923.2,1396.7C7186.3,1934.9 7095.3,2526.5 6683.8,2940C6422.6,3203.2 6163.4,3315.9 5791.4,3325.8C5666.8,3330 5542.1,3328 5514.4,3324ZM6060.5,2977.8C6464.2,2853.2 6760.9,2443.6 6760.9,2010.3C6760.9,1515.6 6398.8,1086.3 5906.1,999.2C5306.7,892.3 4725,1385 4723,2000.3C4723,2702.7 5383.9,3185.5 6060.5,2977.8Z" style="fill:white;fill-rule:nonzero;stroke:white;stroke-width:93.58px;"/>
                <path d="M5585.7,2358.5C5346.3,2245.7 5138.5,2136.9 5124.7,2117.1C5061.4,2030 5134.6,1871.8 5239.4,1871.8C5284.9,1871.8 6114,2255.7 6171.4,2303.1C6220.9,2342.7 6230.8,2417.9 6199.1,2483.2C6133.7,2605.8 6090.2,2597.9 5585.7,2358.5Z" style="fill:white;fill-rule:nonzero;stroke:white;stroke-width:93.58px;"/>
                <path d="M5965.6,1919.2C5864.7,1871.7 5765.8,1820.3 5747.9,1802.5C5690.5,1755 5682.6,1677.9 5726.1,1618.5C5799.3,1519.6 5840.8,1521.5 6070.4,1628.4C6250.5,1713.5 6284.1,1737.2 6301.9,1790.6C6325.6,1857.9 6309.8,1927.1 6264.3,1962.7C6201,2012.2 6145.6,2004.3 5965.6,1919.2Z" style="fill:white;fill-rule:nonzero;stroke:white;stroke-width:93.58px;"/>
                <path d="M3520,-3108.5C3488.3,-3136.2 3444.8,-3274.7 3338,-3680.3C3262.8,-3977.1 3199.5,-4246.2 3199.5,-4279.8C3199.5,-4315.4 3217.3,-4358.9 3239.1,-4380.7C3288.6,-4430.2 3403.3,-4434.1 3452.8,-4384.7C3474.6,-4362.9 3539.9,-4149.2 3630.9,-3793.1C3710,-3488.4 3773.4,-3225.2 3773.4,-3209.4C3773.4,-3191.6 3755.6,-3156 3731.8,-3126.3C3682.2,-3065 3581.3,-3057 3520,-3108.5Z" style="fill:white;fill-rule:nonzero;stroke:white;stroke-width:93.58px;"/>
                <path d="M4214.5,-3296.5C4186.8,-3328.2 4129.4,-3518.1 4030.5,-3900C3903.9,-4396.6 3890,-4465.9 3911.8,-4517.3C3953.4,-4620.2 4093.8,-4640 4165.1,-4552.9C4196.8,-4515.3 4465.9,-3480.5 4465.9,-3397.4C4465.8,-3268.8 4301.5,-3201.5 4214.5,-3296.5Z" style="fill:white;fill-rule:nonzero;stroke:white;stroke-width:93.58px;"/>
                <path d="M4938.7,-3450.8C4920.9,-3460.7 4897.1,-3494.3 4885.3,-3524C4839.8,-3634.8 4604.3,-4578.6 4604.3,-4645.9C4604.3,-4778.5 4776.4,-4841.8 4863.5,-4738.9C4891.2,-4705.3 5178.1,-3634.8 5178.1,-3561.6C5178.1,-3470.6 5023.7,-3401.3 4938.7,-3450.8Z" style="fill:white;fill-rule:nonzero;stroke:white;stroke-width:93.58px;"/>
            </g>
        </g>
    </g>
</svg>
