<svg width="20" height="20" viewBox="0 0 20 20" fill="none" xmlns="http://www.w3.org/2000/svg">
<path d="M4.15 2.91666C4.15 4.06749 3.225 4.99999 2.08333 4.99999C0.941667 4.99999 0.0166667 4.06749 0.0166667 2.91666C0.0166667 1.76666 0.941667 0.833328 2.08333 0.833328C3.225 0.833328 4.15 1.76666 4.15 2.91666ZM4.16667 6.66666H0V20H4.16667V6.66666ZM10.8183 6.66666H6.67833V20H10.8192V13.0008C10.8192 9.10916 15.8433 8.79083 15.8433 13.0008V20H20V11.5575C20 4.99083 12.565 5.22999 10.8183 8.46249V6.66666Z" fill="url(#paint0_linear_267_568)"/>
<defs>
<linearGradient id="paint0_linear_267_568" x1="6.35417" y1="0.833328" x2="15.7721" y2="20.0809" gradientUnits="userSpaceOnUse">
<stop offset="0.260417" stop-color="#5DED9C"/>
<stop offset="1" stop-color="#0EBD91"/>
</linearGradient>
</defs>
</svg>
