<?xml version="1.0" encoding="UTF-8" standalone="no"?>
<!DOCTYPE svg PUBLIC "-//W3C//DTD SVG 1.1//EN" "http://www.w3.org/Graphics/SVG/1.1/DTD/svg11.dtd">
<svg width="100%" height="100%" viewBox="0 0 20 20" version="1.1" xmlns="http://www.w3.org/2000/svg" xmlns:xlink="http://www.w3.org/1999/xlink" xml:space="preserve" xmlns:serif="http://www.serif.com/" style="fill-rule:evenodd;clip-rule:evenodd;stroke-linejoin:round;stroke-miterlimit:2;">
    <g transform="matrix(1,0,0,1,-0.399902,-0.399902)">
        <path d="M0.67,2.002C0.31,1.642 0.31,1.042 0.67,0.67C1.042,0.31 1.629,0.31 2.002,0.67L9.993,8.674L17.997,0.67C18.357,0.31 18.956,0.31 19.316,0.67C19.688,1.042 19.688,1.642 19.316,2.002L11.325,9.994L19.316,17.998C19.688,18.358 19.688,18.957 19.316,19.33C18.956,19.69 18.357,19.69 17.997,19.33L9.993,11.325L2.002,19.33C1.629,19.69 1.042,19.69 0.67,19.33C0.31,18.957 0.31,18.357 0.67,17.998L8.661,9.994L0.67,2.002Z" style="fill:rgb(253,253,253);fill-rule:nonzero;"/>
    </g>
</svg>
