<svg width="24" height="12" viewBox="0 0 24 12" fill="none" xmlns="http://www.w3.org/2000/svg">
<path d="M23.25 0.999962H0.749981C0.612169 0.999962 0.5 0.887793 0.5 0.749981C0.5 0.612141 0.612134 0.5 0.749981 0.5H23.25C23.3878 0.5 23.4999 0.612133 23.4999 0.749981C23.4999 0.88782 23.3878 0.999962 23.25 0.999962Z" fill="#FDFDFD" stroke="#FDFDFD"/>
<path d="M23.25 5.24997H0.749981C0.335964 5.24997 0 5.58599 0 5.99994C0 6.4139 0.336026 6.74992 0.749981 6.74992H23.25C23.664 6.74992 23.9999 6.4139 23.9999 5.99994C23.9999 5.58599 23.664 5.24997 23.25 5.24997Z" fill="#FDFDFD"/>
<path d="M15.75 10.5H0.74998C0.335963 10.5 0 10.836 0 11.25C0 11.664 0.336026 12 0.74998 12H15.75C16.164 12 16.4999 11.6639 16.4999 11.25C16.5 10.836 16.164 10.5 15.75 10.5Z" fill="#FDFDFD"/>
</svg>
