<svg width="23" height="24" viewBox="0 0 23 24" fill="none" xmlns="http://www.w3.org/2000/svg">
<path d="M22.7031 21.8531L17.1813 16.3312C18.55 14.6625 19.375 12.525 19.375 10.1953C19.375 4.85156 15.0391 0.515625 9.69531 0.515625C4.34688 0.515625 0.015625 4.85156 0.015625 10.1953C0.015625 15.5391 4.34688 19.875 9.69531 19.875C12.025 19.875 14.1578 19.0547 15.8266 17.6859L21.3484 23.2031C21.7234 23.5781 22.3281 23.5781 22.7031 23.2031C23.0781 22.8328 23.0781 22.2234 22.7031 21.8531ZM9.69531 17.9484C5.41562 17.9484 1.9375 14.4703 1.9375 10.1953C1.9375 5.92031 5.41562 2.4375 9.69531 2.4375C13.9703 2.4375 17.4531 5.92031 17.4531 10.1953C17.4531 14.4703 13.9703 17.9484 9.69531 17.9484Z" fill="#FDFDFD"/>
</svg>
