<svg width="64" height="64" viewBox="0 0 64 64" fill="none" xmlns="http://www.w3.org/2000/svg">
<path fill-rule="evenodd" clip-rule="evenodd" d="M23.5622 0.252316C22.9995 0.548337 22.5882 1.27739 22.5882 1.97919V2.4736L20.483 2.51547C18.3977 2.55685 18.3698 2.5611 17.5474 2.96476C16.5811 3.43904 15.9172 4.11721 15.4522 5.10491C15.1395 5.76933 15.1216 5.91246 15.1219 7.74509C15.1223 9.76548 15.2261 10.3581 15.8325 11.8035C16.892 14.3287 19.3193 16.4098 22.1097 17.1855C22.8107 17.3804 22.8272 17.3955 23.0351 18.0337C23.4983 19.4549 24.235 20.6427 25.3456 21.7587C26.5151 22.9338 27.5436 23.5823 29.1137 24.1351L30.0549 24.4664L30.0887 27.2315L30.1224 29.9966H28.9856C28.094 29.9966 27.742 30.0509 27.3536 30.2483C26.7968 30.5313 26.3529 31.2515 26.3529 31.8718C26.3529 32.4921 26.7968 33.2122 27.3536 33.4953C27.8204 33.7324 28.0872 33.7469 32 33.7469C35.9128 33.7469 36.1796 33.7324 36.6464 33.4953C37.2032 33.2122 37.6471 32.4921 37.6471 31.8718C37.6471 31.2515 37.2032 30.5313 36.6464 30.2483C36.258 30.0509 35.906 29.9966 35.0144 29.9966H33.8776L33.9113 27.2267L33.9451 24.4568L34.7848 24.1747C36.3854 23.637 37.3799 23.0202 38.5933 21.8126C39.7737 20.6376 40.4865 19.5013 40.9663 18.0294C41.1646 17.4209 41.2159 17.3664 41.7034 17.246C44.4912 16.5573 47.093 14.3679 48.1659 11.8079C48.7745 10.3558 48.8777 9.76673 48.8781 7.74284C48.8784 5.80545 48.8779 5.80183 48.4693 4.97477C47.9934 4.01108 47.3133 3.35016 46.3209 2.88663C45.6625 2.5791 45.4761 2.55448 43.5137 2.51547L41.4118 2.4736V1.97919C41.4118 1.25751 41.0009 0.545962 40.4111 0.246191C39.9299 0.00167384 39.6917 -0.00532688 31.9736 4.85014e-05C24.3141 0.00542388 24.0147 0.0144242 23.5622 0.252316ZM22.5882 9.80774C22.5882 11.7672 22.5537 13.3705 22.5117 13.3705C22.2029 13.3705 20.8366 12.4618 20.3541 11.9355C19.2911 10.7759 18.8235 9.45846 18.8235 7.62283C18.8235 6.24224 18.8194 6.24499 20.903 6.24499H22.5882V9.80774ZM44.9793 6.44137C45.2196 6.68089 45.2509 8.25888 45.0353 9.27032C44.8515 10.1328 44.2842 11.246 43.6983 11.8944C43.2188 12.425 42.1955 13.1422 41.6941 13.299L41.4118 13.3874V9.81611V6.24499H43.097C44.4616 6.24499 44.8196 6.28236 44.9793 6.44137ZM32.8817 7.74672C33.2006 7.90873 33.4671 8.17425 33.6297 8.49189C33.8614 8.9443 33.8824 9.22544 33.8824 11.8796C33.8824 14.5961 33.866 14.803 33.6166 15.2451C33.3085 15.791 32.5783 16.2457 32.0093 16.2457C31.3781 16.2457 30.6559 15.8065 30.3703 15.2489C30.138 14.7952 30.118 14.5213 30.1229 11.8441C30.1288 8.54477 30.1793 8.32938 31.0705 7.79197C31.6713 7.42969 32.2303 7.41569 32.8817 7.74672ZM7.94955 37.9247C5.19881 38.5894 3.13726 41.1909 3.13726 43.9976C3.13726 47.3715 6.02491 50.2481 9.41177 50.2481C12.7986 50.2481 15.6863 47.3715 15.6863 43.9976C15.6863 40.5736 12.7572 37.7066 9.3115 37.7578C8.91796 37.7637 8.30519 37.8387 7.94955 37.9247ZM30.5378 37.9247C27.787 38.5894 25.7255 41.1909 25.7255 43.9976C25.7255 47.3715 28.6131 50.2481 32 50.2481C35.3869 50.2481 38.2745 47.3715 38.2745 43.9976C38.2745 40.5736 35.3454 37.7066 31.8997 37.7578C31.5062 37.7637 30.8934 37.8387 30.5378 37.9247ZM53.126 37.9247C50.3753 38.5894 48.3137 41.1909 48.3137 43.9976C48.3137 47.3715 51.2014 50.2481 54.5882 50.2481C57.9751 50.2481 60.8627 47.3715 60.8627 43.9976C60.8627 40.5736 57.9337 37.7066 54.488 37.7578C54.0944 37.7637 53.4817 37.8387 53.126 37.9247ZM1.83642 52.1357C0.971671 53.0186 0.371827 54.1095 0.138666 55.2233C0.0575995 55.6103 0 57.2627 0 59.1973C0 62.2695 0.0183216 62.5446 0.252612 63.0022C0.415247 63.3199 0.681788 63.5854 1.00066 63.7474C1.48154 63.9916 1.72587 63.999 9.41177 63.999C17.0977 63.999 17.342 63.9916 17.8229 63.7474C18.1417 63.5854 18.4083 63.3199 18.5709 63.0022C18.8052 62.5446 18.8235 62.2695 18.8235 59.1973C18.8235 57.2627 18.7659 55.6103 18.6849 55.2233C18.4525 54.1131 17.8516 53.0184 16.9944 52.1432L16.2062 51.3384L15.707 51.762C14.1149 53.1131 11.6232 53.9983 9.41177 53.9983C7.16888 53.9983 4.44662 53.0021 2.97876 51.644L2.63216 51.3234L1.83642 52.1357ZM24.4247 52.1357C23.5599 53.0186 22.9601 54.1095 22.7269 55.2233C22.6458 55.6103 22.5882 57.2627 22.5882 59.1973C22.5882 62.2695 22.6066 62.5446 22.8408 63.0022C23.0035 63.3199 23.27 63.5854 23.5889 63.7474C24.0698 63.9916 24.3141 63.999 32 63.999C39.6859 63.999 39.9302 63.9916 40.4111 63.7474C40.73 63.5854 40.9965 63.3199 41.1592 63.0022C41.3934 62.5446 41.4118 62.2695 41.4118 59.1973C41.4118 57.2627 41.3542 55.6103 41.2731 55.2233C41.0407 54.1131 40.4398 53.0184 39.5826 52.1432L38.7944 51.3384L38.2952 51.762C36.7031 53.1131 34.2114 53.9983 32 53.9983C29.7571 53.9983 27.0349 53.0021 25.567 51.644L25.2204 51.3234L24.4247 52.1357ZM47.0129 52.1357C46.1481 53.0186 45.5483 54.1095 45.3151 55.2233C45.2341 55.6103 45.1765 57.2627 45.1765 59.1973C45.1765 62.2695 45.1948 62.5446 45.4291 63.0022C45.5917 63.3199 45.8583 63.5854 46.1771 63.7474C46.658 63.9916 46.9023 63.999 54.5882 63.999C62.2741 63.999 62.5185 63.9916 62.9993 63.7474C63.3182 63.5854 63.5848 63.3199 63.7474 63.0022C63.9817 62.5446 64 62.2695 64 59.1973C64 57.2627 63.9424 55.6103 63.8613 55.2233C63.6289 54.1131 63.0281 53.0184 62.1709 52.1432L61.3827 51.3384L60.8835 51.762C59.2914 53.1131 56.7996 53.9983 54.5882 53.9983C52.3454 53.9983 49.6231 53.0021 48.1552 51.644L47.8086 51.3234L47.0129 52.1357Z" fill="url(#paint0_linear_27_661)"/>
<defs>
<linearGradient id="paint0_linear_27_661" x1="20.3333" y1="-0.000976323" x2="52.5947" y2="63.1848" gradientUnits="userSpaceOnUse">
<stop offset="0.260417" stop-color="#5DED9C"/>
<stop offset="1" stop-color="#0EBD91"/>
</linearGradient>
</defs>
</svg>
