<?xml version="1.0" encoding="UTF-8" standalone="no"?>
<!DOCTYPE svg PUBLIC "-//W3C//DTD SVG 1.1//EN" "http://www.w3.org/Graphics/SVG/1.1/DTD/svg11.dtd">
<svg width="100%" height="100%" viewBox="0 0 77 32" version="1.1" xmlns="http://www.w3.org/2000/svg" xmlns:xlink="http://www.w3.org/1999/xlink" xml:space="preserve" xmlns:serif="http://www.serif.com/" style="fill-rule:evenodd;clip-rule:evenodd;stroke-linejoin:round;stroke-miterlimit:2;">
    <path d="M77,4C77,1.792 75.208,0 73,0L4,0C1.792,0 0,1.792 0,4L0,28C0,30.208 1.792,32 4,32L73,32C75.208,32 77,30.208 77,28L77,4Z" style="fill:rgb(255,174,42);"/>
    <g transform="matrix(1,0,0,1,30.4806,21.0651)">
        <text x="0px" y="0px" style="font-family:'ProximaNova-Bold', 'Proxima Nova';font-weight:700;font-size:14px;fill:white;">INDEV</text>
    </g>
    <g transform="matrix(0.0217382,0,0,0.0217382,5.95979,5.1309)">
        <path d="M576.6,405.1C576.1,404.6 575.7,404.2 575.3,403.8C575.8,404.3 576.2,404.7 576.6,405.1ZM703.4,349.8C698.3,354.9 690.1,354.9 685.1,349.8L648.3,313.7C643.2,308.6 643.2,300.5 648.3,295.5L718.4,211.2C680.8,199.3 611.1,207.8 581.2,237.1C553.4,264.4 543.8,343.3 552.2,380.5C559.3,387.7 569.8,398.2 575.3,403.8C569.7,398.1 571.6,399.8 619.5,447.9C656.7,456.5 734.5,443.7 762.5,416.1C792.3,386.6 800.7,317.6 788.8,280.5L703.4,349.8ZM617.5,447.5C618.2,447.7 618.9,447.7 619.6,447.8C620.8,449 621.6,449.7 622.7,450.9L340.8,760.6C304.1,798.2 254.3,802.4 233.9,781.5L220.9,768C193.9,742.7 210.9,683 231.4,662.2L549.3,377.6C550.5,378.7 551.1,379.4 552.3,380.5C552.5,381.6 552.6,382.8 552.8,383.7L617.5,447.5ZM352.2,695.7C352.2,668.7 330.6,646.8 303.9,646.8C277.2,646.8 255.6,668.7 255.6,695.7C255.6,722.6 277.2,744.6 303.9,744.6C330.6,744.6 352.2,722.6 352.2,695.7ZM990,206L990,794.1C990,902.3 902.3,990 794.1,990L205.9,990C97.7,990 10,902.3 10,794.1L10,206C10,97.7 97.7,10 205.9,10L794.1,10C902.3,10 990,97.7 990,206ZM892,255C892,173.8 826.2,108 745,108L255,108C173.7,108 107.9,173.8 107.9,255.1L107.9,745.1C107.9,826.4 173.8,892.2 255,892.2L745,892.2C826.3,892.2 892.1,826.4 892.1,745.1L892.1,255L892,255Z" style="fill:white;fill-rule:nonzero;"/>
    </g>
</svg>
