<svg width="20" height="18" viewBox="0 0 20 18" fill="none" xmlns="http://www.w3.org/2000/svg">
<path fill-rule="evenodd" clip-rule="evenodd" d="M15.3203 16.9825C15.5887 17.1725 15.9345 17.22 16.2428 17.1033C16.5512 16.9858 16.7778 16.7225 16.8462 16.4033C17.5703 13 19.327 4.38583 19.9862 1.29C20.0362 1.05667 19.9528 0.814168 19.7695 0.658335C19.5862 0.502502 19.332 0.457501 19.1053 0.541668C15.6112 1.835 4.85033 5.8725 0.451998 7.5C0.172832 7.60333 -0.00883512 7.87167 0.000331545 8.16583C0.0103315 8.46083 0.208665 8.71667 0.494498 8.8025C2.467 9.3925 5.05616 10.2133 5.05616 10.2133C5.05616 10.2133 6.26616 13.8675 6.897 15.7258C6.97616 15.9592 7.15866 16.1425 7.3995 16.2058C7.6395 16.2683 7.89616 16.2025 8.07533 16.0333C9.08866 15.0767 10.6553 13.5975 10.6553 13.5975C10.6553 13.5975 13.632 15.78 15.3203 16.9825ZM6.14533 9.75167L7.5445 14.3667L7.85533 11.4442C7.85533 11.4442 13.2612 6.56833 16.3428 3.78917C16.4328 3.7075 16.4453 3.57083 16.3703 3.475C16.2962 3.37917 16.1595 3.35667 16.057 3.42167C12.4853 5.7025 6.14533 9.75167 6.14533 9.75167Z" fill="url(#paint0_linear_267_131)"/>
<defs>
<linearGradient id="paint0_linear_267_131" x1="6.35431" y1="0.499878" x2="13.8275" y2="18.0644" gradientUnits="userSpaceOnUse">
<stop offset="0.260417" stop-color="#5DED9C"/>
<stop offset="1" stop-color="#0EBD91"/>
</linearGradient>
</defs>
</svg>
