<?xml version="1.0" encoding="UTF-8" standalone="no"?>
<!DOCTYPE svg PUBLIC "-//W3C//DTD SVG 1.1//EN" "http://www.w3.org/Graphics/SVG/1.1/DTD/svg11.dtd">
<svg width="100%" height="100%" viewBox="0 0 16 16" version="1.1" xmlns="http://www.w3.org/2000/svg" xmlns:xlink="http://www.w3.org/1999/xlink" xml:space="preserve" xmlns:serif="http://www.serif.com/" style="fill-rule:evenodd;clip-rule:evenodd;stroke-linejoin:round;stroke-miterlimit:2;">
    <path d="M7.371,0.009C7.122,0.032 6.543,0.117 6.421,0.149C6.31,0.179 6.294,0.199 6.134,0.531C5.714,1.398 5.362,2.505 5.14,3.657C5.083,3.953 5.077,4.031 5.109,4.069C5.179,4.154 6.09,4.346 6.869,4.44C7.299,4.492 8.694,4.492 9.143,4.439C9.886,4.352 10.791,4.161 10.882,4.072C10.922,4.033 10.919,3.982 10.857,3.66C10.634,2.505 10.282,1.399 9.862,0.531C9.668,0.129 9.713,0.158 9.127,0.068C8.809,0.02 7.674,-0.018 7.371,0.009ZM4.357,0.861C3.703,1.197 3.085,1.628 2.569,2.108C2.272,2.385 2.07,2.604 2.07,2.65C2.07,2.766 2.849,3.226 3.634,3.573C4.079,3.77 4.096,3.761 4.186,3.307C4.291,2.781 4.528,1.905 4.706,1.385C4.806,1.094 4.879,0.834 4.869,0.806C4.818,0.668 4.711,0.68 4.357,0.861ZM11.152,0.759C11.125,0.786 11.103,0.815 11.103,0.823C11.103,0.832 11.186,1.081 11.287,1.377C11.468,1.904 11.705,2.779 11.81,3.307C11.87,3.612 11.895,3.671 11.977,3.697C12.128,3.745 13.804,2.88 13.898,2.705C13.941,2.624 13.893,2.558 13.558,2.232C13.024,1.713 12.359,1.233 11.69,0.885C11.337,0.702 11.234,0.677 11.152,0.759ZM1.253,3.659C0.846,4.219 0.363,5.356 0.177,6.192C0.092,6.573 0.001,7.152 0.001,7.307C0.001,7.51 -0.088,7.501 1.916,7.501C3.422,7.501 3.733,7.494 3.733,7.459C3.733,7.19 3.811,5.998 3.862,5.489C3.909,5.013 3.918,4.828 3.892,4.797C3.873,4.774 3.727,4.702 3.568,4.637C3.07,4.434 2.355,4.075 1.891,3.795C1.646,3.647 1.424,3.526 1.398,3.526C1.371,3.526 1.306,3.586 1.253,3.659ZM14.129,3.78C13.701,4.044 12.835,4.48 12.398,4.652C12.256,4.707 12.125,4.772 12.105,4.796C12.078,4.828 12.085,5 12.134,5.489C12.17,5.847 12.214,6.428 12.231,6.781C12.258,7.324 12.271,7.429 12.316,7.462C12.357,7.492 12.771,7.501 14.133,7.501C16.192,7.501 16.015,7.534 15.982,7.159C15.929,6.574 15.747,5.811 15.504,5.154C15.26,4.493 14.733,3.55 14.6,3.535C14.565,3.532 14.354,3.642 14.129,3.78ZM4.949,5.177C4.873,5.264 4.827,5.677 4.768,6.78C4.741,7.277 4.744,7.367 4.784,7.429L4.832,7.501L11.164,7.501L11.211,7.429C11.252,7.367 11.255,7.277 11.227,6.764C11.21,6.438 11.182,6.016 11.165,5.827C11.095,5.056 11.128,5.09 10.566,5.214C8.893,5.586 7.104,5.586 5.433,5.215C5.204,5.164 5.012,5.123 5.007,5.123C5.001,5.123 4.975,5.147 4.949,5.177ZM0.046,8.556C0.001,8.6 -0.004,8.646 0.014,8.845C0.067,9.429 0.249,10.193 0.492,10.85C0.726,11.482 1.26,12.448 1.389,12.472C1.419,12.477 1.608,12.381 1.808,12.258C2.308,11.951 2.848,11.673 3.388,11.444C3.638,11.339 3.862,11.233 3.885,11.211C3.92,11.176 3.917,11.065 3.862,10.517C3.826,10.158 3.782,9.575 3.765,9.222C3.738,8.68 3.725,8.575 3.68,8.542C3.639,8.511 3.225,8.503 1.863,8.503C0.248,8.503 0.095,8.507 0.046,8.556ZM4.784,8.575C4.744,8.637 4.741,8.727 4.769,9.24C4.786,9.566 4.814,9.988 4.831,10.177C4.901,10.948 4.868,10.914 5.43,10.789C7.129,10.412 8.944,10.418 10.644,10.806C11.115,10.914 11.096,10.937 11.165,10.177C11.182,9.988 11.21,9.566 11.227,9.24C11.255,8.727 11.252,8.637 11.211,8.575L11.164,8.503L4.832,8.503L4.784,8.575ZM12.316,8.542C12.271,8.575 12.258,8.68 12.231,9.222C12.214,9.575 12.17,10.157 12.134,10.515C12.085,11.004 12.078,11.176 12.105,11.208C12.125,11.231 12.256,11.296 12.398,11.352C12.844,11.528 13.642,11.928 14.109,12.209C14.356,12.359 14.582,12.476 14.611,12.471C14.737,12.448 15.274,11.473 15.504,10.85C15.747,10.193 15.929,9.429 15.982,8.845C16.015,8.47 16.192,8.503 14.133,8.503C12.771,8.503 12.357,8.511 12.316,8.542ZM7.308,11.528C6.465,11.588 5.203,11.821 5.109,11.934C5.077,11.973 5.083,12.051 5.14,12.347C5.362,13.498 5.714,14.605 6.134,15.473C6.294,15.805 6.31,15.825 6.421,15.854C7.159,16.048 8.835,16.049 9.572,15.855C9.681,15.826 9.699,15.803 9.86,15.473C10.275,14.628 10.633,13.505 10.856,12.347C10.913,12.052 10.919,11.973 10.887,11.935C10.797,11.826 9.628,11.603 8.815,11.54C8.428,11.51 7.65,11.504 7.308,11.528ZM3.607,12.442C2.911,12.759 2.159,13.185 2.099,13.297C2.055,13.379 2.097,13.439 2.436,13.769C2.938,14.258 3.481,14.659 4.138,15.026C4.641,15.308 4.831,15.354 4.87,15.203C4.879,15.17 4.804,14.906 4.705,14.616C4.524,14.088 4.286,13.206 4.184,12.683C4.131,12.412 4.065,12.288 3.976,12.291C3.954,12.292 3.788,12.36 3.607,12.442ZM11.924,12.347C11.889,12.381 11.845,12.514 11.812,12.683C11.709,13.209 11.472,14.089 11.287,14.627C11.186,14.923 11.103,15.172 11.103,15.18C11.103,15.224 11.211,15.294 11.277,15.294C11.461,15.294 12.46,14.698 13,14.265C13.305,14.021 13.804,13.549 13.882,13.431C13.953,13.323 13.905,13.263 13.605,13.079C13.135,12.792 12.121,12.29 12.01,12.29C11.994,12.29 11.955,12.315 11.924,12.347Z" style="fill:url(#_Linear1);"/>
    <defs>
        <linearGradient id="_Linear1" x1="0" y1="0" x2="1" y2="0" gradientUnits="userSpaceOnUse" gradientTransform="matrix(16,0,0,16,-1.95705e-09,7.99999)"><stop offset="0" style="stop-color:rgb(93,237,156);stop-opacity:1"/><stop offset="1" style="stop-color:rgb(14,168,145);stop-opacity:1"/></linearGradient>
    </defs>
</svg>
