<svg width="20" height="20" viewBox="0 0 20 20" fill="none" xmlns="http://www.w3.org/2000/svg">
<g clip-path="url(#clip0_335_7807)">
<path fill-rule="evenodd" clip-rule="evenodd" d="M16.284 0C17.414 0 18.334 0.92 18.334 2.06V20L16.184 18.1L14.974 16.98L13.694 15.79L14.224 17.64H2.88398C1.75398 17.64 0.833984 16.72 0.833984 15.58V2.06C0.833984 0.92 1.75398 0 2.88398 0H16.284V0ZM12.424 13.06C14.634 12.99 15.484 11.54 15.484 11.54C15.484 8.32 14.044 5.71 14.044 5.71C12.604 4.63 11.234 4.66 11.234 4.66L11.094 4.82C12.794 5.34 13.584 6.09 13.584 6.09C12.544 5.52 11.524 5.24 10.574 5.13C9.85398 5.05 9.16398 5.07 8.55398 5.15L8.38398 5.17C8.03398 5.2 7.18398 5.33 6.11398 5.8C5.74398 5.97 5.52398 6.09 5.52398 6.09C5.52398 6.09 6.35398 5.3 8.15398 4.78L8.05398 4.66C8.05398 4.66 6.68398 4.63 5.24398 5.71C5.24398 5.71 3.80398 8.32 3.80398 11.54C3.80398 11.54 4.64398 12.99 6.85398 13.06C6.85398 13.06 7.22398 12.61 7.52398 12.23C6.25398 11.85 5.77398 11.05 5.77398 11.05L6.05398 11.22L6.09398 11.25L6.13315 11.2725L6.14482 11.2775L6.18398 11.3C6.43398 11.44 6.68398 11.55 6.91398 11.64C7.32398 11.8 7.81398 11.96 8.38398 12.07C9.13398 12.21 10.014 12.26 10.974 12.08C11.444 12 11.924 11.86 12.424 11.65C12.774 11.52 13.164 11.33 13.574 11.06C13.574 11.06 13.074 11.88 11.764 12.25C12.064 12.63 12.424 13.06 12.424 13.06ZM7.77398 8.39C7.20398 8.39 6.75398 8.89 6.75398 9.5C6.75398 10.11 7.21398 10.61 7.77398 10.61C8.34398 10.61 8.79398 10.11 8.79398 9.5C8.80398 8.89 8.34398 8.39 7.77398 8.39ZM11.424 8.39C10.854 8.39 10.404 8.89 10.404 9.5C10.404 10.11 10.864 10.61 11.424 10.61C11.994 10.61 12.444 10.11 12.444 9.5C12.444 8.89 11.994 8.39 11.424 8.39Z" fill="url(#paint0_linear_335_7807)"/>
</g>
<defs>
<linearGradient id="paint0_linear_335_7807" x1="6.39388" y1="7.48515e-08" x2="17.2299" y2="18.57" gradientUnits="userSpaceOnUse">
<stop offset="0.260417" stop-color="#5DED9C"/>
<stop offset="1" stop-color="#0EBD91"/>
</linearGradient>
<clipPath id="clip0_335_7807">
<rect width="20" height="20" fill="white"/>
</clipPath>
</defs>
</svg>
