<?xml version="1.0" encoding="UTF-8" standalone="no"?>
<!DOCTYPE svg PUBLIC "-//W3C//DTD SVG 1.1//EN" "http://www.w3.org/Graphics/SVG/1.1/DTD/svg11.dtd">
<svg width="100%" height="100%" viewBox="0 0 834 168" version="1.1" xmlns="http://www.w3.org/2000/svg" xmlns:xlink="http://www.w3.org/1999/xlink" xml:space="preserve" xmlns:serif="http://www.serif.com/" style="fill-rule:evenodd;clip-rule:evenodd;stroke-linejoin:round;stroke-miterlimit:2;">
    <g transform="matrix(1,0,0,1,-3.07173,-22.9767)">
        <g transform="matrix(1,0,0,1,1.02173,-191.062)">
            <path d="M170.7,270.7L137.4,226.2C131.5,218.5 123,214.1 113.2,214.1C103.5,214.1 94.6,218.5 89,226.2L55.4,271C49.8,278.4 46.3,287.8 46.3,297.8C46.3,322.3 66.3,342.3 90.8,342.3L78.4,358.5C76,361.7 72.5,363.5 68.4,363.5C64.6,363.5 60.7,361.7 58.4,358.5L25.4,314C18.3,304.6 18.3,291 25.4,281.6L58.7,236.8C60.8,233.9 64,232.4 67.2,231.8C68.4,231.8 69.6,231.8 70.4,232.1L81.6,217.1C76.6,214.7 71,213.6 65.4,214.2C56.9,215.1 49.5,219.2 44.5,226L10.9,270.8C-0.9,286.7 -0.9,308.8 10.9,324.7L44.2,369.2C50.1,376.9 58.6,381.3 68.4,381.3C78.2,381.3 87,376.9 92.6,369.2L125.9,324.4C129.4,319.7 132.1,314.4 133.6,308.8L115,308.8C110.9,317.9 101.4,324.4 90.8,324.4C76.1,324.4 64.3,312.3 64.3,297.9C64.3,283.2 76.4,271.4 90.8,271.4C101.4,271.4 110.8,277.9 115,287L133.9,287C128.9,267.5 111.5,253.4 90.9,253.4L103.3,236.9C105.7,233.7 109.2,231.9 113.3,231.9C117.1,231.9 121,233.7 123.3,236.9L156.6,281.4C163.7,290.8 163.7,304.4 156.6,313.8L123.3,358.6C121.2,361.5 118,363.3 114.2,363.6C113.3,363.6 112.1,363.6 111.3,363.3L99.9,378C104,380.1 108.4,381.2 113.2,381.2L115.6,381.2C124.4,380.6 132.4,376.2 137.4,369.1L170.7,324.6C182.8,308.7 182.8,286.6 170.7,270.7Z" style="fill:url(#_Linear1);fill-rule:nonzero;"/>
        </g>
        <g transform="matrix(1,0,0,1,-3.55753,-190.443)">
            <path d="M751.1,313.1L751.1,291.6L769.1,291.6L769.1,275.7L751.1,275.7L751.1,256.5L732.5,256.5L732.5,275.7L720.7,275.7L720.7,291.6L732.5,291.6L732.5,313.1C732.5,327 744,338.5 757.9,338.5L770.3,338.5L770.3,319.9L757.9,319.9C754.3,319.9 751.1,316.9 751.1,313.1Z" style="fill:url(#_Linear2);fill-rule:nonzero;"/>
            <rect x="282.1" y="276" width="18.6" height="62.2" style="fill:url(#_Linear3);"/>
            <rect x="423" y="256.5" width="18.6" height="81.7" style="fill:url(#_Linear4);"/>
            <path d="M473.4,278.6C475.8,276.2 478.4,274.5 481.7,273C484.9,271.5 488.2,270.9 491.7,270.9C494.1,270.9 496.7,271.2 499.1,271.8C501.5,272.4 503.8,273.6 505.9,274.7C508,275.9 509.7,277.6 511.5,279.7C513,281.8 514.4,283.8 515.3,286.5L534.8,286.5C533.6,281.2 531.6,276.2 528.6,272.4C525.7,268.3 522.1,265 518.3,262.4C514.5,259.8 510,257.7 505.6,256.5C501.2,255.3 496.5,254.4 492.3,254.4C486.1,254.4 480.2,255.6 474.9,257.6C469.6,260 464.9,262.9 460.8,266.7C456.7,270.5 453.7,275 451.4,280.3C449.1,285.6 447.9,291.2 447.9,297.1C447.9,303 449.1,308.6 451.4,313.9C453.7,319.2 457,323.6 460.8,327.5C464.9,331.3 469.6,334.3 474.9,336.6C480.2,339 486.1,339.8 492.3,339.8C496.7,339.8 501.1,339.2 505.6,337.7C510,336.2 514.4,334.5 518.3,331.8C522.2,329.1 525.7,325.9 528.6,321.8C531.5,317.7 533.6,313.3 534.8,307.9L515.3,307.9C514.4,310.6 513.2,312.6 511.8,314.7C510.3,316.8 508.3,318.2 506.5,319.7C504.7,321.2 502.4,322.1 499.7,322.6C497.3,323.2 495,323.5 492.3,323.5C488.8,323.5 485.5,322.9 482.3,321.4C479.1,319.9 476.4,318.2 474,315.8C471.6,313.4 469.9,310.8 468.4,307.5C466.9,304.3 466.3,300.7 466.3,296.9C466.3,293.1 466.9,289.5 468.4,286.3C469.3,283.6 471.1,281 473.4,278.6Z" style="fill:url(#_Linear5);fill-rule:nonzero;"/>
            <path d="M616.7,313.1L615.8,309.3L602.2,276L581.9,276L607,334.3L595.2,359.7L615.2,359.7L651.5,276L631.4,276L616.7,313.1Z" style="fill:url(#_Linear6);fill-rule:nonzero;"/>
            <path d="M837.2,294.3C835.4,290.2 833.1,286.6 830.1,283.7C827.2,280.8 823.3,278.4 819.2,276.6C815.1,274.8 810.4,273.9 805.1,273.9C800.1,273.9 795.4,274.8 791,276.6C786.9,278.4 783,280.7 780.1,283.7C777.2,286.6 774.8,290.2 773,294.3C771.2,298.4 770.3,302.6 770.3,307.3C770.3,311.7 771.2,316.1 773,320.3C774.8,324.5 777.1,328 780.1,330.9C783,333.8 786.9,336.2 791,338C795.1,339.8 799.8,340.7 804.9,340.7C810.2,340.7 814.9,339.8 819,338C823.4,336.2 827,333.9 829.9,330.9C832.8,328 835.2,324.4 837,320.3C838.8,316.2 839.7,312 839.7,307.3C839.8,302.5 838.9,298.4 837.2,294.3ZM820.1,314.3C819.2,316.4 818,318.1 816.6,319.6C815.1,321.1 813.4,322.3 811.6,323.1C809.5,324 807.5,324.3 805.1,324.3C802.7,324.3 800.7,324 798.9,323.1C796.8,322.2 795.4,321 793.6,319.6C792.1,318.1 790.9,316.4 790.1,314C789.2,311.9 788.9,309.6 788.9,306.9C788.9,304.2 789.2,301.9 790.1,299.8C791,297.7 792.2,296 793.6,294.5C795.1,293 796.8,291.8 798.6,291C800.7,290.1 802.7,289.8 804.8,289.8C807.2,289.8 809.2,290.1 811.3,291C813.4,291.9 814.8,293.1 816.3,294.5C817.8,296 819,297.7 819.8,299.8C820.7,301.9 821,304.2 821,306.9C821.3,309.6 821,311.9 820.1,314.3Z" style="fill:url(#_Linear7);fill-rule:nonzero;"/>
            <path d="M399.4,276L399.4,279.5C397.6,278.3 395.6,277.1 392.9,276C389.7,274.5 385.8,273.9 381.7,273.9C376.7,273.9 372,274.8 367.8,276.6C363.7,278.4 360.1,280.7 357.2,283.7C354.3,286.6 352.2,290.2 350.4,294.3C348.9,298.4 348,302.6 348,307.3C348,311.7 348.9,316.1 350.4,320.3C351.9,324.5 354.2,328 357.2,330.9C360.1,333.8 363.7,336.2 367.8,338C371.9,339.8 376.6,340.7 381.7,340.7C385.8,340.7 389.4,340.1 392.6,338.6C395,337.7 397.3,336.5 399.1,335.1L399.1,338.6L417.7,338.6L417.7,276L399.4,276ZM398.8,314.3C397.9,316.4 396.7,318.1 395.3,319.9C393.8,321.4 392.1,322.6 390,323.4C387.9,324.2 385.9,324.6 383.5,324.6C381.1,324.6 379.1,324.3 377,323.4C374.9,322.5 373.2,321.3 371.7,319.9C370.2,318.4 369,316.7 368.2,314.3C367.3,312.2 367,309.9 367,307.2C367,304.5 367.3,302.2 368.2,300.1C369.1,298 370.3,296.3 371.7,294.8C373.2,293.3 374.9,292.1 377,291.3C379.1,290.4 381.1,290.1 383.5,290.1C385.9,290.1 387.9,290.4 390,291.3C392.1,292.2 393.8,293.4 395.3,294.8C396.8,296.3 398,298 398.8,300.1C399.7,302.2 400,304.5 400,307.2C400,309.6 399.7,311.9 398.8,314.3Z" style="fill:url(#_Linear8);fill-rule:nonzero;"/>
            <path d="M711.9,283.6C709,280.7 705.4,278.3 701.3,276.5C697.2,274.7 692.5,273.8 687.4,273.8C685.3,273.8 683.3,274.1 681.5,274.4C679.7,274.7 677.7,275.3 676.2,275.9C674.4,276.5 673,277.4 671.5,278.3C670.9,278.6 670.6,278.9 670,279.5L670,276L651.5,276L651.5,359.4L670,359.4L670,334.6C672.4,336.4 674.7,337.5 677.7,338.7C680.6,339.6 683.9,340.2 687.7,340.2C692.7,340.2 697.4,339.3 701.6,337.5C705.7,335.7 709.3,333.4 711.9,330.4C714.8,327.5 716.9,323.9 718.4,319.8C719.9,315.7 720.8,311.5 720.8,306.8C720.8,302.4 719.9,298 718.4,293.8C716.9,290.1 714.8,286.6 711.9,283.6ZM701,314.3C700.1,316.4 698.9,318.1 697.5,319.6C696,321.1 694.3,322.3 692.2,323.1C690.1,324 688.1,324.3 685.7,324.3C683.3,324.3 681.3,324 679.2,323.1C677.1,322.2 675.4,321 673.9,319.6C672.4,318.1 671.2,316.4 670.4,314.3C669.5,312.2 669.2,309.9 669.2,307.2C669.2,304.5 669.5,302.2 670.4,300.1C671.3,298 672.5,296.3 673.9,294.5C675.4,293 677.1,291.8 679.2,291C681.3,290.1 683.3,289.8 685.7,289.8C688.1,289.8 690.1,290.1 692.2,291C694.3,291.9 696,293.1 697.5,294.5C699,295.9 700.2,297.7 701,300.1C701.9,302.2 702.2,304.5 702.2,307.2C702.2,309.6 701.9,311.9 701,314.3Z" style="fill:url(#_Linear9);fill-rule:nonzero;"/>
            <path d="M348.4,276L338.7,276C333.4,276 328.7,277.2 324.3,279.5L324.3,276L305.7,276L305.7,338.2L324.3,338.2L324.3,306.7C324.3,298.7 330.8,292.3 338.7,292.3L348.4,292.3L348.4,276Z" style="fill:url(#_Linear10);fill-rule:nonzero;"/>
            <path d="M572.2,276C566.9,276 562.2,277.2 557.8,279.5L557.8,276L539.2,276L539.2,338.2L557.8,338.2L557.8,306.7C557.8,298.7 564.3,292.3 572.2,292.3L581.9,292.3L581.9,276L572.2,276Z" style="fill:url(#_Linear11);fill-rule:nonzero;"/>
            <path d="M262.1,256.5L240,312.5L239.7,312.5L217.3,256.5L197.2,256.5L231.1,338.2L248.2,338.2L282.1,256.5L262.1,256.5Z" style="fill:url(#_Linear12);fill-rule:nonzero;"/>
            <ellipse cx="291.2" cy="264.8" rx="9.1" ry="8.3" style="fill:url(#_Linear13);"/>
        </g>
    </g>
    <defs>
        <linearGradient id="_Linear1" x1="0" y1="0" x2="1" y2="0" gradientUnits="userSpaceOnUse" gradientTransform="matrix(118.35,118.351,-118.351,118.35,31.66,238.504)"><stop offset="0" style="stop-color:rgb(81,230,154);stop-opacity:1"/><stop offset="1" style="stop-color:rgb(18,190,145);stop-opacity:1"/></linearGradient>
        <linearGradient id="_Linear2" x1="0" y1="0" x2="1" y2="0" gradientUnits="userSpaceOnUse" gradientTransform="matrix(642.508,0,0,105.3,197.2,307.05)"><stop offset="0" style="stop-color:rgb(18,190,145);stop-opacity:1"/><stop offset="1" style="stop-color:rgb(81,230,154);stop-opacity:1"/></linearGradient>
        <linearGradient id="_Linear3" x1="0" y1="0" x2="1" y2="0" gradientUnits="userSpaceOnUse" gradientTransform="matrix(642.508,0,0,105.3,197.2,307.05)"><stop offset="0" style="stop-color:rgb(18,190,145);stop-opacity:1"/><stop offset="1" style="stop-color:rgb(81,230,154);stop-opacity:1"/></linearGradient>
        <linearGradient id="_Linear4" x1="0" y1="0" x2="1" y2="0" gradientUnits="userSpaceOnUse" gradientTransform="matrix(642.508,0,0,105.3,197.2,307.05)"><stop offset="0" style="stop-color:rgb(18,190,145);stop-opacity:1"/><stop offset="1" style="stop-color:rgb(81,230,154);stop-opacity:1"/></linearGradient>
        <linearGradient id="_Linear5" x1="0" y1="0" x2="1" y2="0" gradientUnits="userSpaceOnUse" gradientTransform="matrix(642.508,0,0,105.3,197.2,307.05)"><stop offset="0" style="stop-color:rgb(18,190,145);stop-opacity:1"/><stop offset="1" style="stop-color:rgb(81,230,154);stop-opacity:1"/></linearGradient>
        <linearGradient id="_Linear6" x1="0" y1="0" x2="1" y2="0" gradientUnits="userSpaceOnUse" gradientTransform="matrix(642.508,0,0,105.3,197.2,307.05)"><stop offset="0" style="stop-color:rgb(18,190,145);stop-opacity:1"/><stop offset="1" style="stop-color:rgb(81,230,154);stop-opacity:1"/></linearGradient>
        <linearGradient id="_Linear7" x1="0" y1="0" x2="1" y2="0" gradientUnits="userSpaceOnUse" gradientTransform="matrix(642.508,0,0,105.3,197.2,307.05)"><stop offset="0" style="stop-color:rgb(18,190,145);stop-opacity:1"/><stop offset="1" style="stop-color:rgb(81,230,154);stop-opacity:1"/></linearGradient>
        <linearGradient id="_Linear8" x1="0" y1="0" x2="1" y2="0" gradientUnits="userSpaceOnUse" gradientTransform="matrix(642.508,0,0,105.3,197.2,307.05)"><stop offset="0" style="stop-color:rgb(18,190,145);stop-opacity:1"/><stop offset="1" style="stop-color:rgb(81,230,154);stop-opacity:1"/></linearGradient>
        <linearGradient id="_Linear9" x1="0" y1="0" x2="1" y2="0" gradientUnits="userSpaceOnUse" gradientTransform="matrix(642.508,0,0,105.3,197.2,307.05)"><stop offset="0" style="stop-color:rgb(18,190,145);stop-opacity:1"/><stop offset="1" style="stop-color:rgb(81,230,154);stop-opacity:1"/></linearGradient>
        <linearGradient id="_Linear10" x1="0" y1="0" x2="1" y2="0" gradientUnits="userSpaceOnUse" gradientTransform="matrix(642.508,0,0,105.3,197.2,307.05)"><stop offset="0" style="stop-color:rgb(18,190,145);stop-opacity:1"/><stop offset="1" style="stop-color:rgb(81,230,154);stop-opacity:1"/></linearGradient>
        <linearGradient id="_Linear11" x1="0" y1="0" x2="1" y2="0" gradientUnits="userSpaceOnUse" gradientTransform="matrix(642.508,0,0,105.3,197.2,307.05)"><stop offset="0" style="stop-color:rgb(18,190,145);stop-opacity:1"/><stop offset="1" style="stop-color:rgb(81,230,154);stop-opacity:1"/></linearGradient>
        <linearGradient id="_Linear12" x1="0" y1="0" x2="1" y2="0" gradientUnits="userSpaceOnUse" gradientTransform="matrix(642.508,0,0,105.3,197.2,307.05)"><stop offset="0" style="stop-color:rgb(18,190,145);stop-opacity:1"/><stop offset="1" style="stop-color:rgb(81,230,154);stop-opacity:1"/></linearGradient>
        <linearGradient id="_Linear13" x1="0" y1="0" x2="1" y2="0" gradientUnits="userSpaceOnUse" gradientTransform="matrix(642.508,0,0,105.3,197.2,307.05)"><stop offset="0" style="stop-color:rgb(18,190,145);stop-opacity:1"/><stop offset="1" style="stop-color:rgb(81,230,154);stop-opacity:1"/></linearGradient>
    </defs>
</svg>
