<?xml version="1.0" encoding="utf-8"?>
<!-- Svg Vector Icons : http://www.onlinewebfonts.com/icon -->
<!DOCTYPE svg PUBLIC "-//W3C//DTD SVG 1.1//EN" "http://www.w3.org/Graphics/SVG/1.1/DTD/svg11.dtd">
<svg version="1.1" xmlns="http://www.w3.org/2000/svg" xmlns:xlink="http://www.w3.org/1999/xlink" x="0px" y="0px" viewBox="0 0 1000 1000" enable-background="new 0 0 1000 1000" xml:space="preserve">
<metadata> Svg Vector Icons : http://www.onlinewebfonts.com/icon </metadata>
<g><g transform="translate(0.000000,511.000000) scale(0.100000,-0.100000)"><path d="M6098.1,5005.9c-947.8-138.5-1844.1-623.3-2220-1199c-150.4-227.5-189.9-344.3-389.8-1114l-184-712.3l-635.1-375.9c-350.2-205.8-649-389.8-666.8-405.6c-29.7-31.7-583.7-2134.9-583.7-2220c0-25.7,17.8-67.3,39.6-91c79.1-85.1,134.5-63.3,670.8,253.3c277,162.3,506.5,292.8,510.5,290.9c4-4-33.6-162.3-83.1-350.2c-49.5-188-89-360.1-89-379.9c0-89,75.2-122.7,550.1-243.4l463-118.7l-11.9-59.4c-5.9-31.7-59.4-245.3-116.7-474.9c-114.8-443.2-116.7-494.7-27.7-540.2c63.3-33.7,2109.2-560,2186.4-563.9c110.8-4,130.6,37.6,259.2,538.2c65.3,253.3,120.7,465,124.6,467c4,4,205.8-45.5,451.1-108.8c465-122.7,512.5-130.6,573.8-98.9c43.5,23.8,55.4,59.4,156.3,453.1c43.5,166.2,81.1,306.7,87.1,310.6c4,3.9,142.5-223.6,310.6-508.5c166.2-282.9,318.6-522.4,338.3-532.3c57.4-31.7,110.8-23.7,166.2,25.7c45.5,37.6,83.1,168.2,326.5,1112c152.4,587.7,277,1088.2,277,1112s-170.2,330.4-377.9,682.6c-209.8,352.2-379.9,652.9-377.9,670.8c0,15.8,83.1,346.3,186,732.1l184,700.4l-2,286.9c-2,318.6-29.7,457.1-156.3,765.7c-259.2,637.1-939.9,1414.7-1432.5,1636.3c-98.9,43.5-160.3,57.4-286.9,61.3C6228.7,5011.8,6131.8,5009.8,6098.1,5005.9z M6499.8,4653.7c336.4-170.2,803.3-654.9,1080.3-1121.9c209.7-352.2,314.6-690.5,312.6-1007.1c-2-174.1-21.8-261.2-279-1256.4c-152.3-587.7-409.6-1588.8-573.8-2226c-164.2-637.1-304.7-1171.4-314.6-1189.2c-11.9-27.7-257.2,31.7-1903.4,457.1c-1038.8,269.1-1913.3,494.7-1943,502.6c-31.7,5.9-55.4,25.7-55.4,39.6c0,15.8,257.2,1028.9,573.8,2251.7c666.8,2580.1,617.3,2435.7,928,2748.3c104.9,104.9,257.2,235.5,338.3,288.9c459,306.7,1163.4,554,1588.8,558C6377.1,4701.2,6424.6,4693.2,6499.8,4653.7z M3179.7,1515.6c0-41.6-415.5-1630.4-431.3-1644.2c-19.8-21.8-922-550-928-546.1c-7.9,7.9,425.4,1658.1,439.3,1671.9c19.8,19.8,888.4,534.2,906.2,536.2C3173.7,1535.4,3179.7,1525.5,3179.7,1515.6z M7991.7-97l273-463L8053-1377.2c-114.8-449.1-215.7-823.1-221.6-831c-7.9-7.9-136.5,193.9-286.9,451.1l-273,465l213.7,829C7603.9-6,7704.8,368,7710.7,368S7843.3,158.2,7991.7-97z M4701.2-1976.7c484.8-126.6,882.5-231.5,884.4-233.5c7.9-7.9-180.1-722.2-191.9-736.1c-9.9-9.9-1776.8,437.3-1794.6,455.1c-13.9,11.9,186,742,201.8,742C3810.8-1749.2,4216.5-1852.1,4701.2-1976.7z"/><path d="M5514.4,3324c-269.1-51.4-514.4-184-714.3-381.9c-352.2-352.2-478.8-878.5-322.5-1343.5c75.2-223.6,154.3-350.2,332.4-530.3c263.2-263.2,556-383.9,931.9-383.9c241.4,0,379.9,31.7,603.5,142.5c225.6,108.8,470.9,350.2,577.8,569.8c263.1,538.2,172.1,1129.8-239.4,1543.3c-261.2,263.2-520.4,375.9-892.4,385.8C5666.8,3330,5542.1,3328,5514.4,3324z M6060.5,2977.8c403.7-124.6,700.4-534.2,700.4-967.5c0-494.7-362.1-924-854.8-1011.1C5306.7,892.3,4725,1385,4723,2000.3C4723,2702.7,5383.9,3185.5,6060.5,2977.8z"/><path d="M5585.7,2358.5c-239.4-112.8-447.2-221.6-461-241.4c-63.3-87.1,9.9-245.3,114.7-245.3c45.5,0,874.6,383.9,932,431.3c49.5,39.6,59.4,114.8,27.7,180.1C6133.7,2605.8,6090.2,2597.9,5585.7,2358.5z"/><path d="M5965.6,1919.2c-100.9-47.5-199.8-98.9-217.7-116.7c-57.4-47.5-65.3-124.6-21.8-184c73.2-98.9,114.7-97,344.3,9.9c180.1,85.1,213.7,108.8,231.5,162.2c23.7,67.3,7.9,136.5-37.6,172.1C6201,2012.2,6145.6,2004.3,5965.6,1919.2z"/><path d="M3520-3108.5c-31.7-27.7-75.2-166.2-182-571.8c-75.2-296.8-138.5-565.9-138.5-599.5c0-35.6,17.8-79.1,39.6-100.9c49.5-49.5,164.2-53.4,213.7-4c21.8,21.8,87.1,235.5,178.1,591.6c79.1,304.7,142.5,567.9,142.5,583.7c0,17.8-17.8,53.4-41.6,83.1C3682.2-3065,3581.3-3057,3520-3108.5z"/><path d="M4214.5-3296.5c-27.7-31.7-85.1-221.6-184-603.5c-126.6-496.6-140.5-565.9-118.7-617.3c41.6-102.9,182-122.7,253.3-35.6c31.7,37.6,300.8,1072.4,300.8,1155.5C4465.8-3268.8,4301.5-3201.5,4214.5-3296.5z"/><path d="M4938.7-3450.8c-17.8-9.9-41.6-43.5-53.4-73.2c-45.5-110.8-281-1054.6-281-1121.9c0-132.6,172.1-195.9,259.2-93c27.7,33.6,314.6,1104.1,314.6,1177.3C5178.1-3470.6,5023.7-3401.3,4938.7-3450.8z"/></g></g>
</svg>