<?xml version="1.0" encoding="UTF-8" standalone="no"?>
<!DOCTYPE svg PUBLIC "-//W3C//DTD SVG 1.1//EN" "http://www.w3.org/Graphics/SVG/1.1/DTD/svg11.dtd">
<svg width="100%" height="100%" viewBox="0 0 64 61" version="1.1" xmlns="http://www.w3.org/2000/svg" xmlns:xlink="http://www.w3.org/1999/xlink" xml:space="preserve" xmlns:serif="http://www.serif.com/" style="fill-rule:evenodd;clip-rule:evenodd;stroke-linejoin:round;stroke-miterlimit:2;">
    <g transform="matrix(1,0,0,1,-0.7,-0.649033)">
        <g transform="matrix(1.0618,0,0,1.0618,-0.0432601,-0.0401103)">
            <path d="M57.9,19.9L46.6,4.8C44.6,2.2 41.7,0.7 38.4,0.7C35.1,0.7 32.1,2.2 30.2,4.8L18.8,20C16.9,22.5 15.7,25.7 15.7,29.1C15.7,37.4 22.5,44.2 30.8,44.2L26.6,49.7C25.8,50.8 24.6,51.4 23.2,51.4C21.9,51.4 20.6,50.8 19.8,49.7L8.6,34.6C6.2,31.4 6.2,26.8 8.6,23.6L19.9,8.4C20.6,7.4 21.7,6.9 22.8,6.7C23.2,6.7 23.6,6.7 23.9,6.8L27.7,1.7C26,0.9 24.1,0.5 22.2,0.7C19.3,1 16.8,2.4 15.1,4.7L3.7,19.9C-0.3,25.3 -0.3,32.8 3.7,38.2L15,53.3C17,55.9 19.9,57.4 23.2,57.4C26.5,57.4 29.5,55.9 31.4,53.3L42.7,38.1C43.9,36.5 44.8,34.7 45.3,32.8L39,32.8C37.6,35.9 34.4,38.1 30.8,38.1C25.8,38.1 21.8,34 21.8,29.1C21.8,24.1 25.9,20.1 30.8,20.1C34.4,20.1 37.6,22.3 39,25.4L45.4,25.4C43.7,18.8 37.8,14 30.8,14L35,8.4C35.8,7.3 37,6.7 38.4,6.7C39.7,6.7 41,7.3 41.8,8.4L53.1,23.5C55.5,26.7 55.5,31.3 53.1,34.5L41.8,49.7C41.1,50.7 40,51.3 38.7,51.4C38.4,51.4 38,51.4 37.7,51.3L33.9,56.3C35.3,57 36.8,57.4 38.4,57.4L39.2,57.4C42.2,57.2 44.9,55.7 46.6,53.3L57.9,38.2C62,32.8 62,25.3 57.9,19.9Z" style="fill:url(#_Linear1);fill-rule:nonzero;"/>
        </g>
    </g>
    <defs>
        <linearGradient id="_Linear1" x1="0" y1="0" x2="1" y2="0" gradientUnits="userSpaceOnUse" gradientTransform="matrix(40.1487,40.1487,-40.1487,40.1487,10.751,8.9794)"><stop offset="0" style="stop-color:rgb(81,230,154);stop-opacity:1"/><stop offset="1" style="stop-color:rgb(18,190,145);stop-opacity:1"/></linearGradient>
    </defs>
</svg>
