<?xml version="1.0" encoding="utf-8"?>
<!-- Svg Vector Icons : http://www.onlinewebfonts.com/icon -->
<!DOCTYPE svg PUBLIC "-//W3C//DTD SVG 1.1//EN" "http://www.w3.org/Graphics/SVG/1.1/DTD/svg11.dtd">
<svg version="1.1" xmlns="http://www.w3.org/2000/svg" xmlns:xlink="http://www.w3.org/1999/xlink" x="0px" y="0px" viewBox="0 0 1000 1000" enable-background="new 0 0 1000 1000" xml:space="preserve">
<metadata> Svg Vector Icons : http://www.onlinewebfonts.com/icon </metadata>
<g><path d="M576.6,405.1c-0.5-0.5-0.9-0.9-1.3-1.3C575.8,404.3,576.2,404.7,576.6,405.1z M703.4,349.8c-5.1,5.1-13.3,5.1-18.3,0l-36.8-36.1c-5.1-5.1-5.1-13.2,0-18.2l70.1-84.3c-37.6-11.9-107.3-3.4-137.2,25.9c-27.8,27.3-37.4,106.2-29,143.4c7.1,7.2,17.6,17.7,23.1,23.3c-5.6-5.7-3.7-4,44.2,44.1c37.2,8.6,115-4.2,143-31.8c29.8-29.5,38.2-98.5,26.3-135.6L703.4,349.8z M617.5,447.5c0.7,0.2,1.4,0.2,2.1,0.3c1.2,1.2,2,1.9,3.1,3.1L340.8,760.6c-36.7,37.6-86.5,41.8-106.9,20.9L220.9,768c-27-25.3-10-85,10.5-105.8l317.9-284.6c1.2,1.1,1.8,1.8,3,2.9c0.2,1.1,0.3,2.3,0.5,3.2L617.5,447.5z M352.2,695.7c0-27-21.6-48.9-48.3-48.9c-26.7,0-48.3,21.9-48.3,48.9c0,26.9,21.6,48.9,48.3,48.9C330.6,744.6,352.2,722.6,352.2,695.7z M990,206v588.1C990,902.3,902.3,990,794.1,990H205.9C97.7,990,10,902.3,10,794.1V206C10,97.7,97.7,10,205.9,10h588.2C902.3,10,990,97.7,990,206z M892,255C892,173.8,826.2,108,745,108H255c-81.3,0-147.1,65.8-147.1,147.1v490c0,81.3,65.9,147.1,147.1,147.1h490c81.3,0,147.1-65.8,147.1-147.1V255z"/></g>
</svg>