<?xml version="1.0" encoding="UTF-8" standalone="no"?>
<!DOCTYPE svg PUBLIC "-//W3C//DTD SVG 1.1//EN" "http://www.w3.org/Graphics/SVG/1.1/DTD/svg11.dtd">
<svg width="100%" height="100%" viewBox="0 0 20 20" version="1.1" xmlns="http://www.w3.org/2000/svg" xmlns:xlink="http://www.w3.org/1999/xlink" xml:space="preserve" xmlns:serif="http://www.serif.com/" style="fill-rule:evenodd;clip-rule:evenodd;stroke-linejoin:round;stroke-miterlimit:2;">
    <g transform="matrix(1,0,0,1,0,-0.833328)">
        <path d="M4.15,2.917C4.15,4.067 3.225,5 2.083,5C0.942,5 0.017,4.067 0.017,2.917C0.017,1.767 0.942,0.833 2.083,0.833C3.225,0.833 4.15,1.767 4.15,2.917ZM4.167,6.667L0,6.667L0,20L4.167,20L4.167,6.667ZM10.818,6.667L6.678,6.667L6.678,20L10.819,20L10.819,13.001C10.819,9.109 15.843,8.791 15.843,13.001L15.843,20L20,20L20,11.557C20,4.991 12.565,5.23 10.818,8.462L10.818,6.667Z" style="fill:url(#_Linear1);fill-rule:nonzero;"/>
    </g>
    <defs>
        <linearGradient id="_Linear1" x1="0" y1="0" x2="1" y2="0" gradientUnits="userSpaceOnUse" gradientTransform="matrix(9.41793,19.2476,-19.2476,9.41793,6.35417,0.833328)"><stop offset="0" style="stop-color:rgb(93,237,156);stop-opacity:1"/><stop offset="0.26" style="stop-color:rgb(93,237,156);stop-opacity:1"/><stop offset="1" style="stop-color:rgb(14,189,145);stop-opacity:1"/></linearGradient>
    </defs>
</svg>
